<svg width="160" height="160" viewBox="0 0 160 160" fill="none" xmlns="http://www.w3.org/2000/svg">
<rect width="160" height="160" rx="80" fill="#EDF2F7"/>
<path d="M92.1091 126L90.6857 133.05C90.1956 135.509 88.8684 137.722 86.93 139.312C84.9915 140.903 82.5618 141.772 80.0545 141.772C77.5473 141.772 75.1176 140.903 73.1791 139.312C71.2407 137.722 69.9135 135.509 69.4234 133.05L68 126H92.1091Z" fill="#2D3748"/>
<path d="M54.4509 97.989C47.2923 101.694 41.7646 107.925 38.9399 115.474C38.507 116.688 38.4876 118.01 38.885 119.236C39.2823 120.462 40.074 121.522 41.1366 122.251C42.1992 122.98 43.4732 123.337 44.7599 123.266C46.0465 123.196 47.2738 122.702 48.2503 121.861L53.7992 117.112L54.4509 97.989ZM105.306 117.112L110.855 121.861C111.831 122.702 113.059 123.196 114.345 123.266C115.632 123.337 116.906 122.98 117.969 122.251C119.031 121.522 119.823 120.462 120.22 119.236C120.617 118.01 120.598 116.688 120.165 115.474C117.34 107.925 111.813 101.694 104.654 97.989L105.306 117.112Z" fill="#CBD5E0"/>
<path d="M107.483 108.379C107.483 118.664 99.1462 127 88.862 127H70.2413C59.9571 127 51.6206 118.664 51.6206 108.379C51.6162 105.689 52.1436 103.024 53.1726 100.537C54.2016 98.0512 55.7118 95.793 57.6165 93.8924C58.3273 93.1758 59.0931 92.5159 59.9068 91.9186C65.8744 95.3824 72.6517 97.2068 79.5517 97.2068C86.4516 97.2068 93.2289 95.3824 99.1965 91.9186C101.768 93.8243 103.856 96.3059 105.295 99.1644C106.734 102.023 107.483 105.179 107.483 108.379Z" fill="#D53F8C"/>
<path d="M85.1378 117.69H73.9654C70.5096 117.686 67.1966 116.311 64.753 113.868C62.3094 111.424 60.9348 108.111 60.9309 104.655C60.9237 102.941 61.2586 101.243 61.9159 99.6598C62.5733 98.0767 63.54 96.6408 64.7593 95.4361C65.3476 94.8349 66.0009 94.3009 66.707 93.844C66.9115 93.7095 67.1404 93.6166 67.3807 93.5706C67.621 93.5245 67.8681 93.5263 68.1077 93.5758C68.3474 93.6252 68.575 93.7214 68.7775 93.8588C68.9799 93.9962 69.1534 94.1721 69.2879 94.3765C69.4224 94.581 69.5153 94.8099 69.5613 95.0502C69.6073 95.2906 69.6055 95.5376 69.5561 95.7773C69.5066 96.0169 69.4105 96.2445 69.2731 96.447C69.1357 96.6494 68.9597 96.8229 68.7553 96.9574C68.2691 97.2721 67.8195 97.64 67.4146 98.0541C66.5373 98.9145 65.8411 99.9418 65.3672 101.076C64.8932 102.209 64.6511 103.426 64.655 104.655C64.658 107.124 65.6399 109.49 67.3852 111.235C69.1306 112.981 71.497 113.963 73.9654 113.966H85.1378C87.1282 113.961 89.0648 113.319 90.6635 112.133C92.2621 110.947 93.4387 109.281 94.0207 107.377C94.6026 105.474 94.5592 103.434 93.8969 101.557C93.2345 99.68 91.9881 98.0647 90.3404 96.9481C89.9523 96.6647 89.6887 96.2422 89.6049 95.7689C89.5211 95.2957 89.6235 94.8084 89.8907 94.4089C90.1579 94.0094 90.5692 93.7287 91.0385 93.6255C91.5079 93.5223 91.9991 93.6046 92.4092 93.8552C94.7195 95.4163 96.4683 97.6771 97.3988 100.306C98.3292 102.934 98.3923 105.792 97.5786 108.459C96.765 111.126 95.1176 113.461 92.8783 115.123C90.6391 116.784 87.9261 117.684 85.1378 117.69Z" fill="#81E6D9"/>
<path d="M44.2097 74.8621H42.3103C39.8411 74.8621 37.473 73.8812 35.7269 72.1351C33.9809 70.3891 33 68.021 33 65.5517V50.6552C33 48.1859 33.9809 45.8178 35.7269 44.0718C37.473 42.3257 39.8411 41.3448 42.3103 41.3448H116.793C119.262 41.3448 121.63 42.3257 123.377 44.0718C125.123 45.8178 126.103 48.1859 126.103 50.6552V65.5517C126.103 68.021 125.123 70.3891 123.377 72.1351C121.63 73.8812 119.262 74.8621 116.793 74.8621H44.2097Z" fill="#D53F8C"/>
<path d="M118.655 58.1035C118.655 79.6997 101.148 97.2069 79.5517 97.2069C57.9554 97.2069 40.4482 79.6997 40.4482 58.1035C40.4482 36.5072 57.9554 19 79.5517 19C84.6874 18.998 89.7731 20.0081 94.5182 21.9726C99.2634 23.937 103.575 26.8173 107.206 30.4488C110.838 34.0803 113.718 38.3918 115.683 43.1369C117.647 47.882 118.657 52.9678 118.655 58.1035Z" fill="#F687B3"/>
<path d="M109.345 47.445V68.7731C109.347 69.5688 109.18 70.3559 108.854 71.0817C108.527 71.8075 108.05 72.4551 107.453 72.9814C100.977 78.6551 90.8918 82.3103 79.5518 82.3103C68.2118 82.3103 58.1268 78.6551 51.6506 72.9814C51.0537 72.4551 50.5761 71.8075 50.2499 71.0817C49.9236 70.3559 49.7561 69.5688 49.7587 68.7731V47.445C49.756 46.6512 49.9225 45.866 50.2471 45.1416C50.5718 44.4173 51.047 43.7704 51.6412 43.2441C58.1064 37.5537 68.2099 33.8966 79.5518 33.8966C90.8937 33.8966 100.997 37.5537 107.462 43.2441C108.057 43.7704 108.532 44.4173 108.856 45.1416C109.181 45.866 109.348 46.6512 109.345 47.445Z" fill="#81E6D9"/>
<path d="M73.3152 63.5517C72.7404 63.5517 72.1891 63.3234 71.7826 62.9169C71.3761 62.5104 71.1477 61.9591 71.1477 61.3842C71.1477 60.2345 70.691 59.1319 69.8781 58.3189C69.0651 57.506 67.9625 57.0493 66.8128 57.0493C65.6631 57.0493 64.5604 57.506 63.7475 58.3189C62.9345 59.1319 62.4778 60.2345 62.4778 61.3842C62.4778 61.9591 62.2494 62.5104 61.843 62.9169C61.4365 63.3234 60.8852 63.5517 60.3103 63.5517C59.7355 63.5517 59.1841 63.3234 58.7777 62.9169C58.3712 62.5104 58.1428 61.9591 58.1428 61.3842C58.1428 59.0848 59.0563 56.8796 60.6822 55.2537C62.3081 53.6277 64.5134 52.7143 66.8128 52.7143C69.1122 52.7143 71.3174 53.6277 72.9434 55.2537C74.5693 56.8796 75.4827 59.0848 75.4827 61.3842C75.4827 61.9591 75.2544 62.5104 74.8479 62.9169C74.4414 63.3234 73.8901 63.5517 73.3152 63.5517ZM99.3251 63.5517C98.7502 63.5517 98.1989 63.3234 97.7924 62.9169C97.386 62.5104 97.1576 61.9591 97.1576 61.3842C97.1576 60.2345 96.7009 59.1319 95.8879 58.3189C95.0749 57.506 93.9723 57.0493 92.8226 57.0493C91.6729 57.0493 90.5703 57.506 89.7573 58.3189C88.9444 59.1319 88.4876 60.2345 88.4876 61.3842C88.4876 61.9591 88.2593 62.5104 87.8528 62.9169C87.4463 63.3234 86.895 63.5517 86.3202 63.5517C85.7453 63.5517 85.194 63.3234 84.7875 62.9169C84.381 62.5104 84.1527 61.9591 84.1527 61.3842C84.1527 59.0848 85.0661 56.8796 86.692 55.2537C88.318 53.6277 90.5232 52.7143 92.8226 52.7143C95.122 52.7143 97.3273 53.6277 98.9532 55.2537C100.579 56.8796 101.493 59.0848 101.493 61.3842C101.493 61.9591 101.264 62.5104 100.858 62.9169C100.451 63.3234 99.8999 63.5517 99.3251 63.5517Z" fill="#2D3748"/>
<path d="M79.5518 84.1724C68.1429 84.1724 57.5254 80.6028 50.4216 74.3817C49.6254 73.6803 48.9882 72.8169 48.5528 71.8493C48.1173 70.8818 47.8936 69.8323 47.8966 68.7712V47.445C47.894 46.3865 48.117 45.3396 48.5508 44.3741C48.9846 43.4086 49.6192 42.5467 50.4123 41.8457C57.4956 35.6097 68.1168 32.0345 79.5518 32.0345C90.9868 32.0345 101.608 35.6097 108.691 41.8457C109.484 42.5467 110.119 43.4086 110.553 44.3741C110.987 45.3396 111.21 46.3865 111.207 47.445V68.7712C111.21 69.8323 110.986 70.8818 110.551 71.8493C110.115 72.8169 109.478 73.6803 108.682 74.3817C101.578 80.6028 90.9607 84.1724 79.5518 84.1724ZM79.5518 35.7586C69.0106 35.7586 59.2851 38.9968 52.8739 44.6407C52.4777 44.9921 52.1609 45.424 51.9448 45.9076C51.7287 46.3912 51.6182 46.9153 51.6208 47.445V68.7712C51.6179 69.3021 51.7286 69.8275 51.9453 70.3121C52.1621 70.7967 52.48 71.2294 52.8777 71.5811C59.3093 77.2157 69.033 80.4483 79.5518 80.4483C90.0706 80.4483 99.7944 77.2157 106.226 71.5811C106.624 71.2294 106.942 70.7967 107.158 70.3121C107.375 69.8275 107.486 69.3021 107.483 68.7712V47.445C107.485 46.9153 107.375 46.3912 107.159 45.9076C106.943 45.424 106.626 44.9921 106.23 44.6407C99.8186 38.9968 90.093 35.7586 79.5518 35.7586Z" fill="#F7FAFC"/>
</svg>
