<svg width="160" height="160" viewBox="0 0 160 160" fill="none" xmlns="http://www.w3.org/2000/svg">
<rect width="160" height="160" rx="80" fill="#EDF2F7"/>
<path d="M118.008 64.9299L113.56 53.8094L118.008 42.689C120.957 42.689 123.786 43.8606 125.871 45.9461C127.957 48.0316 129.128 50.8601 129.128 53.8094C129.128 56.7588 127.957 59.5873 125.871 61.6728C123.786 63.7582 120.957 64.9299 118.008 64.9299ZM42.389 64.9299L46.8371 53.8094L42.389 42.689C39.4397 42.689 36.6111 43.8606 34.5257 45.9461C32.4402 48.0316 31.2686 50.8601 31.2686 53.8094C31.2686 56.7588 32.4402 59.5873 34.5257 61.6728C36.6111 63.7582 39.4397 64.9299 42.389 64.9299Z" fill="#5271FF"/>
<path d="M92.2529 129.228L90.8295 136.279C90.3394 138.737 89.0122 140.95 87.0737 142.541C85.1353 144.131 82.7056 145 80.1983 145C77.6911 145 75.2614 144.131 73.3229 142.541C71.3845 140.95 70.0573 138.737 69.5672 136.279L68.1438 129.228H92.2529Z" fill="#2D3748"/>
<path d="M42.389 104.543V127.204C41.1449 126.154 39.5692 125.577 37.9408 125.577C36.3125 125.577 34.7368 126.154 33.4927 127.204V102.228C34.0128 102.923 34.6827 103.492 35.4527 103.893C36.2228 104.293 37.0732 104.516 37.9408 104.543H42.389ZM126.904 102.228V127.204C125.66 126.154 124.084 125.577 122.456 125.577C120.828 125.577 119.252 126.154 118.008 127.204V104.543H122.456C123.324 104.516 124.174 104.293 124.944 103.893C125.714 103.492 126.384 102.923 126.904 102.228Z" fill="#CBD5E0"/>
<path d="M69.0782 16H91.319C106.058 16 118.008 27.95 118.008 42.689V69.378C118.008 72.9172 116.602 76.3114 114.1 78.814C111.597 81.3166 108.203 82.7225 104.664 82.7225H55.7337C52.1945 82.7225 48.8003 81.3166 46.2977 78.814C43.7951 76.3114 42.3892 72.9172 42.3892 69.378V42.689C42.3892 27.95 54.3392 16 69.0782 16Z" fill="#7D96FF"/>
<path d="M93.5428 36.0168H66.8537C58.2555 36.0168 51.2852 42.9871 51.2852 51.5854V56.0335C51.2852 64.6318 58.2555 71.6021 66.8537 71.6021H93.5428C102.141 71.6021 109.111 64.6318 109.111 56.0335V51.5854C109.111 42.9871 102.141 36.0168 93.5428 36.0168Z" fill="#81E6D9"/>
<path d="M73.5261 58.2576C72.9362 58.2576 72.3705 58.0233 71.9534 57.6062C71.5363 57.1891 71.302 56.6234 71.302 56.0335C71.302 54.8538 70.8334 53.7224 69.9992 52.8882C69.165 52.054 68.0336 51.5854 66.8539 51.5854C65.6741 51.5854 64.5427 52.054 63.7085 52.8882C62.8743 53.7224 62.4057 54.8538 62.4057 56.0335C62.4057 56.6234 62.1714 57.1891 61.7543 57.6062C61.3372 58.0233 60.7715 58.2576 60.1816 58.2576C59.5917 58.2576 59.026 58.0233 58.6089 57.6062C58.1918 57.1891 57.9575 56.6234 57.9575 56.0335C57.9575 53.6741 58.8948 51.4113 60.5632 49.7429C62.2316 48.0745 64.4944 47.1372 66.8539 47.1372C69.2133 47.1372 71.4761 48.0745 73.1445 49.7429C74.8129 51.4113 75.7502 53.6741 75.7502 56.0335C75.7502 56.6234 75.5159 57.1891 75.0988 57.6062C74.6817 58.0233 74.116 58.2576 73.5261 58.2576ZM100.215 58.2576C99.6253 58.2576 99.0596 58.0233 98.6425 57.6062C98.2254 57.1891 97.991 56.6234 97.991 56.0335C97.991 54.8538 97.5224 53.7224 96.6882 52.8882C95.854 52.054 94.7226 51.5854 93.5429 51.5854C92.3631 51.5854 91.2317 52.054 90.3975 52.8882C89.5634 53.7224 89.0947 54.8538 89.0947 56.0335C89.0947 56.6234 88.8604 57.1891 88.4433 57.6062C88.0262 58.0233 87.4605 58.2576 86.8706 58.2576C86.2808 58.2576 85.715 58.0233 85.298 57.6062C84.8809 57.1891 84.6465 56.6234 84.6465 56.0335C84.6465 53.6741 85.5838 51.4113 87.2522 49.7429C88.9206 48.0745 91.1834 47.1372 93.5429 47.1372C95.9023 47.1372 98.1651 48.0745 99.8335 49.7429C101.502 51.4113 102.439 53.6741 102.439 56.0335C102.439 56.6234 102.205 57.1891 101.788 57.6062C101.371 58.0233 100.805 58.2576 100.215 58.2576Z" fill="#2D3748"/>
<path d="M57.5794 121.889C53.6878 117.79 50.9886 112.707 49.7729 107.187C49.2984 104.995 49.0598 102.758 49.0612 100.515V96.0671C49.05 93.7213 49.6724 91.4161 50.8627 89.3948C52.0302 87.3659 53.712 85.6808 55.7386 84.5093C57.7652 83.3379 60.0649 82.7216 62.4057 82.7225H97.991C100.332 82.7216 102.632 83.3379 104.658 84.5093C106.685 85.6808 108.367 87.3659 109.534 89.3948C110.724 91.4165 111.347 93.7206 111.336 96.0671V100.515C111.337 102.758 111.098 104.995 110.624 107.187C109.408 112.707 106.709 117.79 102.817 121.889" fill="#5271FF"/>
<path d="M102.817 121.889C99.9132 124.975 96.4084 127.434 92.5185 129.115C88.6286 130.796 84.4358 131.663 80.1983 131.663C75.9607 131.663 71.768 130.796 67.8781 129.115C63.9882 127.434 60.4834 124.975 57.5793 121.889C64.8464 119.361 72.5058 118.148 80.1983 118.308C87.8908 118.148 95.5502 119.361 102.817 121.889Z" fill="#1A2993"/>
<path d="M77.0847 105.773L72.274 100.293C71.7812 99.7304 71.4611 99.0378 71.3519 98.2981C71.2428 97.5584 71.3493 96.8028 71.6587 96.1221C71.9681 95.4414 72.4672 94.8643 73.0963 94.46C73.7253 94.0558 74.4576 93.8415 75.2054 93.843H85.1915C85.9393 93.8415 86.6716 94.0558 87.3006 94.46C87.9297 94.8643 88.4288 95.4414 88.7382 96.1221C89.0476 96.8028 89.1541 97.5584 89.045 98.2981C88.9358 99.0378 88.6157 99.7304 88.1229 100.293L83.3122 105.773C82.9229 106.215 82.4439 106.57 81.907 106.812C81.3701 107.055 80.7876 107.18 80.1985 107.18C79.6093 107.18 79.0268 107.055 78.4899 106.812C77.953 106.57 77.474 106.215 77.0847 105.773Z" fill="#81E6D9"/>
<path d="M49.0613 100.515C49.0613 102.759 49.2992 104.995 49.773 107.187H37.9408C36.1732 107.181 34.4799 106.476 33.23 105.226C31.9801 103.976 31.275 102.283 31.2686 100.515V98.2911C31.2686 95.9317 32.2059 93.6689 33.8743 92.0005C35.5427 90.3321 37.8055 89.3948 40.1649 89.3948H50.8628C49.6725 91.4161 49.0501 93.7213 49.0613 96.067V100.515ZM46.8372 131.652C46.8431 134.018 45.9091 136.289 44.2407 137.965C42.5723 139.642 40.3062 140.587 37.9408 140.593C35.5755 140.599 33.3047 139.665 31.6279 137.997C29.9512 136.328 29.0059 134.062 29 131.697C28.9971 130.526 29.2249 129.365 29.6704 128.282C30.1159 127.199 30.7704 126.214 31.5965 125.384C32.4226 124.554 33.4041 123.894 34.4851 123.443C35.566 122.993 36.7252 122.759 37.8964 122.756C40.2617 122.75 42.5325 123.684 44.2093 125.353C45.886 127.021 46.8313 129.287 46.8372 131.652ZM129.128 98.2911V100.515C129.122 102.283 128.417 103.976 127.167 105.226C125.917 106.476 124.224 107.181 122.456 107.187H110.624C111.098 104.995 111.336 102.759 111.336 100.515V96.067C111.347 93.7213 110.724 91.4161 109.534 89.3948H120.232C122.591 89.3948 124.854 90.3321 126.523 92.0005C128.191 93.6689 129.128 95.9317 129.128 98.2911ZM131.352 131.652C131.355 132.824 131.128 133.984 130.682 135.067C130.237 136.15 129.582 137.135 128.756 137.965C127.93 138.796 126.948 139.455 125.867 139.906C124.786 140.357 123.627 140.59 122.456 140.593C121.285 140.596 120.125 140.368 119.041 139.923C117.958 139.477 116.973 138.823 116.143 137.997C115.313 137.171 114.654 136.189 114.203 135.108C113.752 134.027 113.518 132.868 113.515 131.697C113.509 129.332 114.443 127.061 116.112 125.384C117.78 123.707 120.046 122.762 122.412 122.756C124.777 122.75 127.048 123.684 128.724 125.353C130.401 127.021 131.347 129.287 131.352 131.652Z" fill="#1A2993"/>
<path d="M93.543 73.8262H66.854C62.1367 73.8209 57.6141 71.9446 54.2785 68.609C50.9429 65.2734 49.0666 60.7508 49.0613 56.0335V51.5854C49.0666 46.8681 50.9429 42.3455 54.2785 39.0099C57.6141 35.6743 62.1367 33.798 66.854 33.7927H93.543C98.2603 33.798 102.783 35.6743 106.118 39.0099C109.454 42.3455 111.33 46.8681 111.336 51.5854V56.0335C111.33 60.7508 109.454 65.2734 106.118 68.609C102.783 71.9446 98.2603 73.8209 93.543 73.8262ZM66.854 38.2409C63.3159 38.2444 59.9237 39.6515 57.4219 42.1533C54.9201 44.6551 53.513 48.0473 53.5094 51.5854V56.0335C53.513 59.5716 54.9201 62.9638 57.4219 65.4656C59.9237 67.9674 63.3159 69.3745 66.854 69.378H93.543C97.0811 69.3745 100.473 67.9674 102.975 65.4656C105.477 62.9638 106.884 59.5716 106.887 56.0335V51.5854C106.884 48.0473 105.477 44.6551 102.975 42.1533C100.473 39.6515 97.0811 38.2444 93.543 38.2409H66.854Z" fill="#F7FAFC"/>
</svg>
