<svg width="108" height="108" viewBox="0 0 108 108" fill="none" xmlns="http://www.w3.org/2000/svg">
<path opacity="0.5" d="M44.6013 23.8605C43.4768 22.3335 41.1539 23.9901 42.2043 25.5681C42.4773 25.9845 42.7781 26.3825 43.065 26.7666C46.5217 31.4356 48.3125 37.1043 49.8534 42.7034C50.2329 44.0917 50.5985 45.5493 50.1681 46.9052C50.7882 43.268 50.3856 39.5013 49.4509 35.9335C48.5161 32.3658 47.0909 28.9507 45.5685 25.5588C45.3061 24.9606 44.982 24.3914 44.6013 23.8605Z" fill="#5271FF"/>
<path d="M22.1675 33.6661C19.8538 33.592 19.5391 37.132 21.8621 37.3171C22.4729 37.3634 23.0838 37.3773 23.6714 37.3958C30.8116 37.5901 37.5537 40.1722 44.0553 42.9487C45.6471 43.6335 47.2945 44.4017 48.2524 45.864C45.3278 42.4721 41.4732 39.9871 37.3779 38.1593C33.2826 36.3315 28.9143 35.133 24.5506 33.9946C23.7708 33.7975 22.9716 33.6873 22.1675 33.6661Z" fill="#97BC62"/>
<path opacity="0.2" d="M22.8106 42.3703C21.3391 42.4212 21.6723 44.5174 23.1531 44.5266C23.5418 44.5266 23.9304 44.5266 24.3006 44.4989C28.8031 44.3138 33.4167 45.5586 37.8914 46.9236C38.9927 47.2614 40.1496 47.6409 40.9501 48.4646C38.574 46.6301 35.8808 45.2482 33.0048 44.3878C30.1734 43.5453 27.2844 42.9097 24.3608 42.4859C23.8494 42.3942 23.33 42.3555 22.8106 42.3703Z" fill="#5271FF"/>
<path opacity="0.5" d="M52.9537 81.2685C53.3701 82.6845 55.3137 81.8423 54.9574 80.4031C54.8648 80.0283 54.7538 79.6581 54.6473 79.3018C53.3516 74.9844 53.4118 70.2043 53.6247 65.5306C53.6802 64.383 53.7589 63.166 54.3558 62.1896C53.1697 64.9455 52.4999 67.8959 52.3799 70.8938C52.2643 73.8479 52.3648 76.8066 52.6807 79.746C52.7209 80.2613 52.8124 80.7713 52.9537 81.2685Z" fill="#5271FF"/>
<path opacity="0.2" d="M25.4945 21.8846C24.6107 21.7319 24.5412 23.023 25.4251 23.2173C25.6565 23.2683 25.8878 23.3099 26.1146 23.3469C28.8262 23.8097 31.4222 25.1377 33.921 26.5213C34.5652 26.8164 35.1264 27.2663 35.5545 27.8309C34.3673 26.4329 32.9338 25.2644 31.3251 24.3835C29.7407 23.5222 28.0969 22.7753 26.4061 22.1484C26.111 22.0326 25.8059 21.9443 25.4945 21.8846Z" fill="#5271FF"/>
<path d="M11.8067 56.1138C9.55778 57.2706 11.4597 60.4497 13.7687 59.3946C14.3749 59.117 14.9626 58.8069 15.5272 58.5154C22.4035 54.9476 30.3859 53.6381 38.2432 52.6247C40.1682 52.3794 42.2228 52.1619 44.009 52.9255C39.1456 51.5372 33.9721 51.4401 28.9699 52C23.9676 52.5599 19.1042 53.8509 14.287 55.1605C13.43 55.3931 12.5989 55.7125 11.8067 56.1138Z" fill="#5271FF"/>
<path opacity="0.5" d="M18.2341 68.4829C16.6145 69.9914 19.1596 71.773 20.8347 70.3338C21.2975 69.9544 21.7001 69.5518 22.1073 69.1724C27.0309 64.5449 33.5417 61.2594 40.0247 58.2239C41.6165 57.4788 48.1643 56.7199 49.9135 56.7616C45.3462 57.1688 36.0312 58.6126 31.8665 60.4635C27.8006 62.3958 23.8706 64.602 20.1036 67.0669C19.4373 67.4791 18.8114 67.9532 18.2341 68.4829Z" fill="#5271FF"/>
<path d="M29.7657 88.2327C29.303 90.3891 32.3802 90.4215 32.954 88.2651C33.1021 87.7006 33.2224 87.1314 33.3381 86.59C34.7634 79.9866 38.2478 73.573 41.8572 67.3954C42.7457 65.8776 47.7016 61.5278 49.1639 60.5699C45.6378 63.5037 38.7753 69.9775 36.4338 73.8877C34.1875 77.7895 32.2071 81.8384 30.5061 86.0069C30.189 86.7236 29.9411 87.4689 29.7657 88.2327Z" fill="#5271FF"/>
<path d="M52.9768 12.4169C51.8755 10.1726 48.7288 12.019 49.7376 14.3234C50.0014 14.925 50.2929 15.5127 50.5752 16.0772C53.9625 22.9351 55.1286 30.885 56.0032 38.6637C56.2161 40.5795 56.3965 42.6156 55.6191 44.374C57.0397 39.5753 57.2294 34.4481 56.7389 29.4829C56.2484 24.5177 55.0777 19.6959 53.8561 14.888C53.6478 14.0365 53.3532 13.2086 52.9768 12.4169Z" fill="#5271FF"/>
<path d="M35.4389 16.2391C35.4966 16.273 35.5618 16.292 35.6286 16.2947C35.749 16.2947 35.8369 16.1697 35.8878 16.0587C36.1608 15.4617 36.0035 14.6704 36.4292 14.2077C36.8595 14.7243 37.2061 15.3051 37.4565 15.9291L39.0714 15.4293C39.1468 15.7426 39.1586 16.0678 39.1062 16.3858C39.0537 16.7037 38.9381 17.0079 38.766 17.2803C39.0484 17.4055 39.3056 17.5811 39.525 17.7986C39.6342 17.9088 39.7106 18.0473 39.7457 18.1984C39.7809 18.3496 39.7733 18.5075 39.7239 18.6547C39.3515 18.7447 38.9683 18.7821 38.5856 18.7657C38.6459 19.476 38.6038 20.1914 38.4606 20.8897C38.4568 20.9415 38.4426 20.992 38.4187 21.0381C38.3949 21.0843 38.3619 21.1251 38.3218 21.1581C38.2061 21.2368 38.0488 21.1581 37.9285 21.0933C37.3731 20.7533 36.9155 20.275 36.6004 19.7051L35.985 21.0841C35.9412 21.2312 35.8459 21.3577 35.7166 21.4404C35.6255 21.4726 35.5262 21.4732 35.4347 21.4422C35.3432 21.4111 35.2648 21.3502 35.2122 21.2692C35.1139 21.1024 35.0539 20.9159 35.0363 20.7231L34.8096 19.3349C34.807 19.2637 34.7809 19.1954 34.7355 19.1405C34.668 19.0894 34.584 19.0647 34.4995 19.0711C33.9257 19.0711 33.3566 19.0711 32.7874 19.0711C32.6902 18.7657 32.991 18.4834 33.2825 18.3585C33.5741 18.2336 33.9211 18.1318 34.0692 17.8495C34.3654 17.2711 33.6064 16.4613 33.9211 15.9708C34.3191 15.4155 34.9392 15.9939 35.4389 16.2391Z" fill="#5271FF"/>
<path opacity="0.5" d="M66.6232 23.8605C67.7477 22.3335 70.0661 23.9901 69.0203 25.5681C68.7426 25.9845 68.4465 26.3825 68.1596 26.7666C64.7029 31.4356 62.912 37.1043 61.3665 42.7034C60.987 44.0917 60.6215 45.5493 61.0564 46.9052C60.4364 43.268 60.8389 39.5013 61.7737 35.9335C62.7084 32.3658 64.1522 28.9507 65.6515 25.5727C65.9164 24.9704 66.242 24.3968 66.6232 23.8605Z" fill="#5271FF"/>
<path d="M89.0524 33.6661C91.3661 33.592 91.6808 37.132 89.3578 37.3171C88.7516 37.3634 88.1361 37.3773 87.5531 37.3958C80.4083 37.5901 73.6708 40.1722 67.1693 42.9487C65.5774 43.6335 63.9023 44.4017 62.9722 45.864C65.8967 42.4721 69.7467 39.9871 73.8466 38.1593C77.9465 36.3315 82.3056 35.133 86.6739 33.9946C87.4522 33.7978 88.2498 33.6876 89.0524 33.6661Z" fill="#5271FF"/>
<path opacity="0.5" d="M88.4091 42.3703C89.8852 42.4212 89.5521 44.5174 88.0713 44.5267C87.6826 44.5267 87.2939 44.5267 86.9237 44.4989C82.4166 44.3138 77.8076 45.5586 73.3329 46.9237C72.2316 47.2615 71.0701 47.6409 70.2742 48.4646C72.6503 46.6301 75.3435 45.2482 78.2195 44.3878C81.0583 43.5412 83.955 42.9024 86.8867 42.4767C87.3892 42.3898 87.8993 42.3542 88.4091 42.3703Z" fill="#5271FF"/>
<path opacity="0.2" d="M85.73 21.8846C86.6138 21.7319 86.6832 23.023 85.7994 23.2173C85.568 23.2683 85.3366 23.3099 85.1099 23.3469C82.3982 23.8097 79.7976 25.1377 77.2988 26.5213C76.656 26.8166 76.0963 27.2665 75.6699 27.8309C76.8555 26.433 78.2875 25.2645 79.8948 24.3835C81.4811 23.5231 83.1264 22.7762 84.8184 22.1484C85.1135 22.0326 85.4186 21.9443 85.73 21.8846Z" fill="#5271FF"/>
<path opacity="0.2" d="M62.6435 83.9478C62.4446 84.827 61.2276 84.4105 61.3895 83.485C61.4312 83.2536 61.4867 83.0223 61.5376 82.8001C62.153 80.1209 61.9309 77.2102 61.6163 74.3736C61.5933 73.6665 61.3945 72.9763 61.0378 72.3653C61.8702 73.9971 62.3956 75.768 62.588 77.5897C62.7736 79.3849 62.8277 81.1913 62.75 82.9945C62.7476 83.3151 62.7119 83.6346 62.6435 83.9478Z" fill="#5271FF"/>
<path opacity="0.5" d="M85.1608 78.1125C85.8549 79.2879 84.152 79.2092 83.4023 78.0339C83.208 77.7284 83.0275 77.4184 82.8563 77.1084C80.7462 73.5221 77.5394 69.9729 74.3048 66.5439C73.5389 65.655 72.6453 64.8847 71.6533 64.258C74.1755 65.9795 76.5029 67.9702 78.5945 70.195C80.6676 72.3653 82.5 74.6281 84.2955 76.8863C84.6117 77.2747 84.9008 77.6844 85.1608 78.1125Z" fill="#5271FF"/>
<path opacity="0.2" d="M23.5557 78.1125C22.8616 79.2879 24.5645 79.2092 25.3095 78.0339C25.5085 77.7284 25.689 77.4184 25.8602 77.1084C27.9703 73.5221 31.1771 69.9729 34.4117 66.5439C35.1765 65.654 36.0703 64.8835 37.0632 64.258C34.5401 65.9782 32.2126 67.9691 30.122 70.195C28.049 72.3653 26.2119 74.6281 24.421 76.8863C24.1048 77.2747 23.8157 77.6844 23.5557 78.1125Z" fill="#97BC62"/>
<path opacity="0.2" d="M46.0866 83.9478C46.2856 84.827 47.5026 84.4105 47.3407 83.485C47.299 83.2536 47.2435 83.0223 47.1926 82.8001C46.5771 80.1209 46.7993 77.2102 47.1139 74.3736C47.1369 73.6665 47.3357 72.9763 47.6924 72.3653C46.8664 74.003 46.3488 75.7786 46.1653 77.6035C45.9798 79.3988 45.9257 81.2052 46.0034 83.0084C45.9991 83.3235 46.027 83.6383 46.0866 83.9478Z" fill="#5271FF"/>
<path opacity="0.2" d="M78.6313 30.6999C79.5152 30.5426 79.5846 31.8336 78.7007 32.0326C78.4694 32.0835 78.238 32.1205 78.0113 32.1575C75.2996 32.6203 72.7036 33.953 70.2002 35.3366C69.5573 35.6297 68.9976 36.0781 68.5713 36.6415C69.7574 35.2436 71.1912 34.0764 72.8008 33.1987C74.3832 32.3337 76.0273 31.5867 77.7197 30.9637C78.0134 30.8436 78.319 30.7552 78.6313 30.6999Z" fill="#5271FF"/>
<path opacity="0.2" d="M70.3529 13.3933C71.1164 12.9306 71.6624 14.092 70.9128 14.6057C70.7184 14.7399 70.5148 14.8602 70.3251 14.9805C67.979 16.4243 66.0679 18.6269 64.2678 20.8481C63.7781 21.3577 63.4262 21.9835 63.2451 22.6667C63.8225 20.9268 64.715 19.3081 65.8781 17.8912C67.0251 16.4992 68.2716 15.1924 69.6078 13.981C69.8363 13.7612 70.0859 13.5643 70.3529 13.3933Z" fill="#5271FF"/>
<path d="M99.4179 56.1138C101.667 57.2706 99.7649 60.4497 97.4559 59.3946C96.8497 59.117 96.2573 58.8069 95.6974 58.5154C88.821 54.9476 80.8341 53.6381 72.9814 52.6247C71.0564 52.3794 69.0018 52.1619 67.2156 52.9255C72.0744 51.5372 77.2525 51.4401 82.2547 52C87.257 52.5599 92.1204 53.8509 96.9376 55.1605C97.7943 55.3939 98.6253 55.7133 99.4179 56.1138Z" fill="#97BC62"/>
<path opacity="0.5" d="M92.9902 68.4829C94.6052 69.9914 92.0647 71.773 90.3849 70.3338C89.9453 69.9544 89.5196 69.5518 89.117 69.1724C84.1888 64.5449 77.678 61.2594 71.1996 58.2239C69.6078 57.4788 63.0553 56.7199 61.3108 56.7616C65.8781 57.1688 75.1931 58.6126 79.3578 60.4635C83.4252 62.3958 87.3568 64.602 91.1253 67.0669C91.79 67.4793 92.4144 67.9534 92.9902 68.4829Z" fill="#5271FF"/>
<path d="M73.9299 90.6945C74.1289 92.8926 71.0563 92.5455 70.7601 90.329C70.6815 89.7505 70.6352 89.1721 70.5889 88.6168C70.0012 81.8885 67.3497 75.0908 64.5409 68.506C63.8514 66.891 59.4785 61.9582 58.1458 60.8245C61.2785 64.1747 67.2757 71.4676 69.1081 75.6322C70.8477 79.7831 72.304 84.047 73.4672 88.3947C73.6919 89.1454 73.8468 89.9153 73.9299 90.6945Z" fill="#5271FF"/>
<path d="M75.7808 16.2391C75.723 16.273 75.6579 16.292 75.591 16.2947C75.4661 16.2947 75.3828 16.1697 75.3319 16.0587C75.0543 15.4617 75.2162 14.6704 74.7905 14.2077C74.3602 14.7243 74.0136 15.3051 73.7632 15.9291L72.1482 15.4293C72.0718 15.7425 72.0595 16.0679 72.1119 16.386C72.1644 16.7041 72.2806 17.0083 72.4536 17.2803C72.1699 17.4055 71.9112 17.5811 71.6901 17.7986C71.5821 17.9096 71.5068 18.0483 71.4726 18.1993C71.4383 18.3503 71.4463 18.5079 71.4957 18.6547C71.8681 18.7449 72.2513 18.7823 72.6341 18.7657C72.5746 19.4759 72.6151 20.1908 72.7544 20.8897C72.7641 20.9938 72.8139 21.0901 72.8932 21.1581C73.0136 21.2368 73.1709 21.1581 73.2912 21.0933C73.8466 20.7533 74.3042 20.275 74.6193 19.7051L75.2208 21.1396C75.263 21.2875 75.3587 21.4145 75.4892 21.4959C75.5796 21.5287 75.6784 21.5296 75.7693 21.4984C75.8602 21.4673 75.9377 21.406 75.989 21.3247C76.0906 21.1591 76.1524 20.9722 76.1695 20.7787L76.3916 19.3904C76.398 19.3193 76.4254 19.2516 76.4702 19.1961C76.5378 19.1449 76.6217 19.1202 76.7062 19.1267C77.2754 19.1267 77.8492 19.1267 78.4184 19.1267C78.5156 18.8212 78.2102 18.539 77.9186 18.414C77.6271 18.2891 77.2847 18.1873 77.1366 17.905C76.8404 17.3266 77.5993 16.5168 77.28 16.0263C76.9052 15.4155 76.2851 15.9939 75.7808 16.2391Z" fill="#97BC62"/>
<path opacity="0.2" d="M80.6581 82.7724C80.6004 82.8062 80.5353 82.8252 80.4684 82.8279C80.3435 82.8279 80.2602 82.7076 80.2093 82.5965C79.9363 81.9949 80.0936 81.2083 79.6679 80.7178C79.2386 81.2351 78.892 81.8158 78.6406 82.4392L77.0256 81.9394C76.9503 82.2527 76.9385 82.5779 76.9909 82.8958C77.0434 83.2137 77.159 83.5179 77.331 83.7904C77.0486 83.9156 76.7915 84.0912 76.5721 84.3087C76.4629 84.4189 76.3865 84.5573 76.3513 84.7085C76.3162 84.8597 76.3238 85.0176 76.3732 85.1647C76.7454 85.2563 77.1285 85.2952 77.5115 85.2804C77.4511 85.9892 77.4932 86.703 77.6364 87.3998C77.6401 87.4523 77.6543 87.5035 77.6782 87.5504C77.702 87.5973 77.735 87.6389 77.7753 87.6728C77.8909 87.7468 78.0483 87.6728 78.1686 87.6034C78.724 87.2634 79.1816 86.785 79.4967 86.2152L80.0982 87.6497C80.1432 87.7975 80.238 87.925 80.3666 88.0106C80.4585 88.037 80.5564 88.0343 80.6468 88.0028C80.7371 87.9713 80.8154 87.9126 80.871 87.8348C80.9693 87.668 81.0293 87.4815 81.0469 87.2887L81.2736 85.9236C81.271 85.8843 81.2777 85.8449 81.2931 85.8087C81.3086 85.7725 81.3324 85.7404 81.3627 85.7152C81.3929 85.6899 81.4287 85.6721 81.4671 85.6633C81.5055 85.6545 81.5454 85.6549 81.5836 85.6645C82.1528 85.6645 82.7266 85.6414 83.2958 85.6645C83.393 85.3591 83.0922 85.0814 82.8006 84.9519C82.5091 84.8223 82.1621 84.7298 82.014 84.4429C81.7178 83.8691 82.4767 83.0546 82.1621 82.5687C81.7965 81.9487 81.1579 82.5271 80.6581 82.7724Z" fill="#5271FF"/>
<path d="M94.3508 38.1732C94.2925 38.2096 94.2251 38.2288 94.1564 38.2287C94.0361 38.2287 93.9528 38.1084 93.9019 37.9973C93.6242 37.4004 93.7816 36.6091 93.3605 36.1186C92.9304 36.637 92.5838 37.2194 92.3332 37.8446L90.7182 37.3402C90.6415 37.6534 90.629 37.9789 90.6815 38.297C90.734 38.6151 90.8504 38.9193 91.0236 39.1912C90.7392 39.3152 90.4803 39.4909 90.2601 39.7095C90.1531 39.8211 90.0781 39.9596 90.0431 40.1102C90.0081 40.2608 90.0143 40.4181 90.0611 40.5656C90.4349 40.6571 90.8196 40.696 91.2041 40.6812C91.1445 41.3898 91.185 42.1033 91.3244 42.8006C91.3339 42.9061 91.3836 43.0038 91.4632 43.0736C91.5836 43.1477 91.7362 43.0736 91.8566 43.0088C92.413 42.6686 92.872 42.1904 93.1893 41.6206L93.7862 43.0551C93.8297 43.2036 93.9249 43.3317 94.0546 43.416C94.1462 43.447 94.2456 43.4465 94.337 43.4147C94.4283 43.3828 94.5064 43.3214 94.559 43.2402C94.6614 43.075 94.7232 42.8879 94.7394 42.6942L94.9616 41.3059C94.9678 41.237 94.9934 41.1712 95.0356 41.1162C95.104 41.0631 95.1901 41.0383 95.2762 41.0468C95.8454 41.0468 96.4146 41.0468 96.9838 41.0468C97.0856 40.746 96.7801 40.4637 96.4886 40.3342C96.1971 40.2046 95.85 40.1121 95.7066 39.8298C95.4104 39.2514 96.1693 38.4416 95.85 37.9511C95.4706 37.3495 94.8459 37.9279 94.3508 38.1732Z" fill="#5271FF"/>
<path d="M39.613 89.4451C39.5332 89.4935 39.4424 89.5205 39.3492 89.5238C39.178 89.5238 39.0577 89.3526 38.9883 89.1953C38.6042 88.3669 38.8263 87.2841 38.234 86.5854C37.6356 87.3051 37.1531 88.1139 36.8041 88.9824L34.5506 88.2883C34.4461 88.7246 34.4299 89.1774 34.503 89.62C34.5761 90.0627 34.737 90.4862 34.9763 90.8658C34.5807 91.0374 34.2212 91.2824 33.9166 91.5876C33.7663 91.7417 33.6609 91.9339 33.612 92.1436C33.563 92.3532 33.5724 92.5722 33.639 92.7769C34.1595 92.9044 34.6952 92.9589 35.2308 92.9389C35.1465 93.9276 35.2042 94.9233 35.402 95.8958C35.4137 96.0407 35.4819 96.1753 35.5917 96.2706C35.6831 96.3077 35.7829 96.3187 35.8802 96.3024C35.9774 96.286 36.0682 96.243 36.1424 96.1781C36.9213 95.6984 37.5598 95.0215 37.9934 94.216L38.8309 96.2151C38.8905 96.4219 39.0239 96.5997 39.2058 96.7148C39.333 96.7593 39.4715 96.7598 39.5991 96.7162C39.7266 96.6725 39.8358 96.5873 39.9091 96.4742C40.0469 96.2429 40.1307 95.9835 40.1544 95.7153L40.469 93.8134C40.4727 93.7138 40.5084 93.6181 40.5708 93.5404C40.6668 93.4698 40.7854 93.4368 40.904 93.4479C41.6999 93.4479 42.4959 93.4155 43.2872 93.4479C43.426 93.0221 43.0002 92.6334 42.5977 92.453C42.1951 92.2725 41.7092 92.1429 41.5056 91.7496C41.0891 90.9444 42.1627 89.8246 41.7046 89.1305C41.1724 88.2975 40.3071 89.1073 39.613 89.4451Z" fill="#5271FF"/>
<path d="M16.8412 39.5059C16.7598 39.5542 16.6675 39.5813 16.5728 39.5846C16.4062 39.5846 16.2859 39.4134 16.2119 39.256C15.8325 38.4231 16.05 37.3449 15.4623 36.6415C14.8623 37.3628 14.3784 38.173 14.0277 39.0432L11.7788 38.3444C11.6721 38.7813 11.6548 39.2352 11.728 39.679C11.8011 40.1227 11.9632 40.5471 12.2045 40.9265C11.8083 41.097 11.4485 41.3421 11.1449 41.6484C10.9932 41.8016 10.8869 41.9939 10.8379 42.2038C10.7889 42.4137 10.799 42.6331 10.8672 42.8377C11.3879 42.9641 11.9237 43.017 12.459 42.995C12.3753 43.9836 12.4314 44.979 12.6257 45.9519C12.6307 46.025 12.6505 46.0964 12.6839 46.1616C12.7173 46.2268 12.7636 46.2846 12.82 46.3314C12.9866 46.4378 13.1994 46.3314 13.3707 46.2388C14.1485 45.7578 14.7867 45.0813 15.2216 44.2768L16.0592 46.2758C16.1213 46.4802 16.252 46.6567 16.4294 46.7756C16.5566 46.8201 16.6951 46.8206 16.8227 46.7769C16.9502 46.7333 17.0594 46.6481 17.1328 46.535C17.272 46.304 17.3574 46.0446 17.3826 45.7761L17.6927 43.8696C17.7007 43.7715 17.7378 43.6781 17.7991 43.6012C17.894 43.5285 18.0134 43.4953 18.1323 43.5086C18.9236 43.5086 19.7195 43.4763 20.5154 43.4809C20.6496 43.0598 20.2285 42.6665 19.8213 42.4906C19.4141 42.3148 18.9328 42.1759 18.7292 41.7826C18.3174 40.9774 19.3863 39.8622 18.9328 39.1681C18.4007 38.3583 17.5353 39.1589 16.8412 39.5059Z" fill="#97BC62"/>
<path opacity="0.2" d="M85.9614 70.431C85.9201 70.458 85.8719 70.4725 85.8225 70.4726C85.73 70.4726 85.6699 70.3801 85.6282 70.3014C85.4246 69.8387 85.5449 69.2834 85.2302 68.9132C84.9111 69.2942 84.6549 69.7238 84.4713 70.1858L83.2728 69.8156C83.213 70.0501 83.2023 70.2945 83.2413 70.5333C83.2804 70.7722 83.3683 71.0005 83.4996 71.2038C83.2898 71.2968 83.0986 71.4269 82.935 71.5879C82.8561 71.6707 82.8011 71.7734 82.7759 71.8851C82.7506 71.9967 82.7561 72.113 82.7916 72.2218C83.0675 72.2863 83.3506 72.3143 83.6338 72.3051C83.5881 72.8297 83.6193 73.3582 83.7263 73.8738C83.7288 73.9128 83.739 73.951 83.7565 73.986C83.774 74.0209 83.7984 74.052 83.8281 74.0774C83.9161 74.133 84.0317 74.0774 84.1197 74.0265C84.532 73.7711 84.8702 73.4121 85.1007 72.9853L85.5634 74.045C85.5966 74.1548 85.667 74.2497 85.7624 74.3134C85.8304 74.3364 85.9041 74.3362 85.972 74.3127C86.0398 74.2892 86.0979 74.2439 86.1372 74.1839C86.2109 74.0615 86.2552 73.9237 86.2668 73.7813L86.4334 72.7679C86.4317 72.7387 86.4369 72.7096 86.4487 72.6829C86.4604 72.6562 86.4782 72.6326 86.5008 72.6141C86.5233 72.5956 86.55 72.5827 86.5785 72.5765C86.607 72.5702 86.6365 72.5708 86.6647 72.5781C87.0905 72.5781 87.5116 72.5781 87.9327 72.5781C88.0067 72.3514 87.7799 72.1432 87.5671 72.0506C87.3542 71.9581 87.1044 71.884 86.984 71.6758C86.7665 71.2454 87.3357 70.6531 87.0905 70.2876C86.8452 69.922 86.3131 70.2505 85.9614 70.431Z" fill="#5271FF"/>
<path opacity="0.2" d="M55.0084 88.2929C54.9653 88.3198 54.9157 88.3342 54.8649 88.3345C54.777 88.3345 54.7122 88.242 54.6752 88.1587C54.4716 87.7191 54.5873 87.1453 54.2772 86.7704C53.9576 87.1537 53.6999 87.5846 53.5137 88.0476L52.3198 87.6774C52.2603 87.912 52.2497 88.1563 52.2887 88.3951C52.3278 88.634 52.4155 88.8622 52.5466 89.0657C52.3359 89.157 52.1443 89.2873 51.982 89.4497C51.9014 89.5316 51.845 89.6341 51.8189 89.7459C51.7927 89.8577 51.798 89.9746 51.8339 90.0837C52.1113 90.1486 52.3961 90.1766 52.6808 90.167C52.6356 90.6914 52.6652 91.2196 52.7687 91.7357C52.7715 91.774 52.7819 91.8113 52.7994 91.8455C52.8169 91.8797 52.8411 91.91 52.8705 91.9347C52.9584 91.9948 53.0741 91.9347 53.162 91.8884C53.576 91.6336 53.9159 91.2746 54.1477 90.8472L54.6104 91.9069C54.6436 92.0167 54.714 92.1116 54.8094 92.1753C54.8774 92.1983 54.9511 92.198 55.0189 92.1746C55.0868 92.1511 55.1449 92.1058 55.1842 92.0457C55.2579 91.9233 55.3022 91.7855 55.3138 91.6431L55.4804 90.6297C55.4839 90.5774 55.5033 90.5274 55.5359 90.4863C55.5875 90.4509 55.6492 90.433 55.7117 90.4354C56.1328 90.4354 56.5539 90.4354 56.9796 90.4354C57.0491 90.2086 56.8269 90.0004 56.6095 89.9078C56.392 89.8153 56.1467 89.7413 56.031 89.533C55.8089 89.1027 56.3781 88.5104 56.1374 88.1448C55.8968 87.7792 55.3785 88.1078 55.0084 88.2929Z" fill="#97BC62"/>
<path opacity="0.5" d="M25.069 25.7763C25.0274 25.8026 24.9794 25.817 24.9302 25.8179C24.8852 25.8099 24.8433 25.7897 24.8091 25.7595C24.7748 25.7293 24.7495 25.6903 24.7358 25.6467C24.5322 25.184 24.6479 24.6287 24.3379 24.2585C24.0182 24.64 23.7606 25.0694 23.5743 25.531L22.3804 25.1608C22.3218 25.3955 22.3116 25.6396 22.3506 25.8783C22.3896 26.117 22.4769 26.3453 22.6072 26.5491C22.3967 26.6387 22.2051 26.7675 22.0426 26.9285C21.9625 27.0106 21.9064 27.1131 21.8803 27.2249C21.8542 27.3366 21.8591 27.4533 21.8946 27.5625C22.1712 27.6316 22.4566 27.6596 22.7414 27.6458C22.6965 28.1717 22.7261 28.7014 22.8293 29.2191C22.8329 29.2577 22.8442 29.2951 22.8625 29.3293C22.8808 29.3635 22.9057 29.3936 22.9357 29.4181C23.0237 29.4736 23.1347 29.4181 23.2273 29.3718C23.6402 29.1151 23.9785 28.7545 24.2083 28.326L24.671 29.3903C24.7026 29.4997 24.7735 29.5936 24.87 29.6541C24.938 29.6771 25.0117 29.6768 25.0796 29.6533C25.1474 29.6299 25.2055 29.5846 25.2448 29.5245C25.3185 29.4021 25.3629 29.2643 25.3744 29.1219L25.541 28.1131C25.5445 28.0608 25.5639 28.0108 25.5965 27.9697C25.6461 27.9302 25.7093 27.9119 25.7723 27.9188C26.1934 27.9188 26.6192 27.9188 27.0403 27.9188C27.1097 27.6967 26.8876 27.4884 26.6701 27.3913C26.4526 27.2941 26.2073 27.2247 26.0916 27.0164C25.8695 26.5907 26.4433 25.9938 26.1981 25.6282C25.9528 25.2626 25.4392 25.5958 25.069 25.7763Z" fill="#5271FF"/>
<path opacity="0.5" d="M41.001 61.0049C40.96 61.0325 40.9116 61.047 40.8622 61.0466C40.7697 61.0466 40.7095 60.9586 40.6725 60.8754C40.4689 60.4126 40.5846 59.8573 40.2699 59.4871C39.9533 59.87 39.6974 60.2991 39.511 60.7597L38.3125 60.3895C38.2552 60.6242 38.2457 60.8681 38.2847 61.1066C38.3236 61.3451 38.4102 61.5734 38.5392 61.7777C38.3305 61.8701 38.1407 62.0003 37.9793 62.1618C37.8987 62.2436 37.8423 62.3461 37.8162 62.4579C37.7901 62.5698 37.7953 62.6867 37.8312 62.7957C38.1067 62.8626 38.3902 62.8906 38.6734 62.879C38.6301 63.4052 38.6612 63.9349 38.766 64.4524C38.7688 64.4906 38.7792 64.528 38.7967 64.5622C38.8142 64.5963 38.8384 64.6267 38.8678 64.6513C38.9557 64.7069 39.0714 64.6513 39.1593 64.6004C39.5733 64.3456 39.9132 63.9866 40.145 63.5593L40.6077 64.6189C40.6383 64.7301 40.7092 64.8258 40.8067 64.8873C40.8739 64.9108 40.9472 64.9108 41.0144 64.8873C41.0817 64.8637 41.1389 64.8181 41.1769 64.7578C41.2522 64.6358 41.2981 64.498 41.3111 64.3552L41.4777 63.3464C41.4775 63.2897 41.499 63.235 41.5378 63.1937C41.562 63.1735 41.5901 63.1585 41.6204 63.1497C41.6506 63.1409 41.6824 63.1386 41.7137 63.1428C42.1332 63.1428 42.5543 63.1428 42.9769 63.1428C43.051 62.9207 42.8289 62.7078 42.6114 62.6153C42.3939 62.5227 42.1486 62.4487 42.033 62.2404C41.8108 61.8147 42.38 61.2178 42.1394 60.8522C41.8987 60.4866 41.3712 60.8244 41.001 61.0049Z" fill="#5271FF"/>
<path opacity="0.5" d="M29.4372 47.2754C29.3944 47.2989 29.3471 47.313 29.2984 47.317C29.2541 47.3069 29.2133 47.2853 29.18 47.2545C29.1467 47.2236 29.1221 47.1845 29.1087 47.1412C28.9051 46.7016 29.0207 46.1278 28.7061 45.7529C28.3878 46.1363 28.1317 46.5673 27.9472 47.0301L26.7487 46.6599C26.6919 46.8947 26.6827 47.1385 26.7216 47.377C26.7605 47.6154 26.8469 47.8436 26.9754 48.0481C26.765 48.1378 26.5734 48.2665 26.4109 48.4276C26.332 48.5105 26.277 48.6132 26.2517 48.7248C26.2265 48.8364 26.2319 48.9528 26.2674 49.0615C26.5425 49.1309 26.8263 49.1589 27.1096 49.1448C27.0663 49.671 27.0974 50.2007 27.2022 50.7182C27.205 50.7565 27.2154 50.7938 27.2329 50.828C27.2504 50.8622 27.2745 50.8925 27.304 50.9171C27.3919 50.9727 27.5076 50.9171 27.5955 50.8709C28.009 50.6135 28.3487 50.2531 28.5811 49.8251L29.0439 50.8894C29.0743 50.9981 29.1434 51.0919 29.2382 51.1531C29.3062 51.1761 29.3799 51.1759 29.4478 51.1524C29.5156 51.129 29.5738 51.0836 29.613 51.0236C29.6884 50.9016 29.7343 50.7638 29.7473 50.621L29.9092 49.6122C29.9128 49.5599 29.9321 49.5099 29.9647 49.4688C30.0158 49.4286 30.0807 49.4102 30.1452 49.4179C30.5648 49.4179 30.9858 49.4179 31.4085 49.4179C31.4825 49.1957 31.2558 48.9875 31.0429 48.8903C30.8301 48.7932 30.5802 48.7237 30.4599 48.5155C30.2424 48.0898 30.8115 47.4928 30.5709 47.1273C30.3303 46.7617 29.8074 47.0903 29.4372 47.2754Z" fill="#5271FF"/>
<path opacity="0.5" d="M79.1081 50.5053C79.0671 50.5328 79.0187 50.5473 78.9693 50.5469C78.8767 50.5469 78.8166 50.459 78.7795 50.3757C78.5759 49.913 78.6916 49.3577 78.377 48.9875C78.0588 49.3692 77.8027 49.7986 77.618 50.26L76.4196 49.8898C76.3622 50.1246 76.3528 50.3685 76.3917 50.607C76.4307 50.8455 76.5173 51.0737 76.6463 51.2781C76.4365 51.3711 76.2453 51.5012 76.0818 51.6621C76.0029 51.745 75.9479 51.8477 75.9226 51.9593C75.8974 52.0709 75.9028 52.1873 75.9383 52.2961C76.2138 52.3631 76.4972 52.3912 76.7805 52.3794C76.7371 52.9056 76.7683 53.4352 76.873 53.9527C76.8758 53.991 76.8863 54.0284 76.9038 54.0625C76.9213 54.0967 76.9454 54.127 76.9749 54.1517C77.0628 54.2072 77.1785 54.1517 77.2664 54.1008C77.6804 53.846 78.0203 53.487 78.252 53.0596L78.7148 54.1193C78.7454 54.2304 78.8163 54.3261 78.9138 54.3877C78.9811 54.4104 79.054 54.4099 79.1211 54.3865C79.1881 54.363 79.2454 54.3178 79.2839 54.2581C79.3592 54.1361 79.4052 53.9983 79.4181 53.8555L79.5847 52.8468C79.5823 52.8173 79.5869 52.7876 79.5983 52.7603C79.6097 52.733 79.6275 52.7088 79.6501 52.6897C79.6728 52.6707 79.6997 52.6574 79.7286 52.6509C79.7575 52.6444 79.7874 52.6449 79.8161 52.6524C80.2387 52.6524 80.6598 52.6524 81.0794 52.6524C81.1534 52.4303 80.9267 52.2174 80.7138 52.1249C80.5009 52.0323 80.2511 51.9583 80.1308 51.7501C79.9133 51.3243 80.4824 50.7274 80.2418 50.3618C80.0012 49.9963 79.4829 50.3248 79.1081 50.5053Z" fill="#5271FF"/>
<path opacity="0.2" d="M55.0084 47.8029C54.9654 47.8298 54.9157 47.8443 54.865 47.8445C54.7771 47.8445 54.7123 47.7566 54.6753 47.6733C54.4717 47.2106 54.5873 46.6553 54.2773 46.2851C53.9577 46.6666 53.7 47.0961 53.5138 47.5576L52.3199 47.1874C52.2612 47.4221 52.2511 47.6662 52.2901 47.905C52.3291 48.1437 52.4163 48.3719 52.5466 48.5757C52.3361 48.6653 52.1446 48.7941 51.9821 48.9551C51.902 49.0372 51.8458 49.1397 51.8197 49.2515C51.7936 49.3632 51.7986 49.48 51.834 49.5891C52.1106 49.6584 52.396 49.6864 52.6808 49.6724C52.636 50.1983 52.6656 50.728 52.7688 51.2457C52.7768 51.3224 52.8131 51.3933 52.8706 51.4447C52.9585 51.5002 53.0742 51.4447 53.1621 51.3984C53.5767 51.1423 53.9167 50.7817 54.1477 50.3526L54.6105 51.4169C54.6421 51.5263 54.7129 51.6202 54.8094 51.6807C54.8775 51.7037 54.9512 51.7034 55.019 51.68C55.0869 51.6565 55.145 51.6112 55.1843 51.5511C55.258 51.4287 55.3023 51.2909 55.3139 51.1485L55.4804 50.1397C55.484 50.0874 55.5034 50.0374 55.536 49.9963C55.5856 49.9568 55.6488 49.9385 55.7118 49.9454C56.1329 49.9454 56.554 49.9454 56.9797 49.9454C57.0491 49.7233 56.827 49.515 56.6095 49.4179C56.392 49.3207 56.1468 49.2513 56.0311 49.043C55.809 48.6173 56.3781 48.0204 56.1375 47.6548C55.8969 47.2892 55.3786 47.6224 55.0084 47.8029Z" fill="#5271FF"/>
<path opacity="0.3" d="M47.4426 51.0976C47.3998 51.1211 47.3525 51.1353 47.3038 51.1393C47.2595 51.1291 47.2187 51.1076 47.1854 51.0767C47.1521 51.0458 47.1275 51.0068 47.114 50.9634C46.9104 50.5007 47.0261 49.95 46.7115 49.5752C46.3922 49.9579 46.136 50.389 45.9526 50.8524L44.7541 50.4775C44.6975 50.7124 44.6885 50.9561 44.7274 51.1945C44.7663 51.4329 44.8525 51.6611 44.9808 51.8658C44.7703 51.9554 44.5787 52.0842 44.4162 52.2452C44.3373 52.3281 44.2823 52.4308 44.2571 52.5424C44.2318 52.654 44.2373 52.7704 44.2728 52.8792C44.5478 52.9485 44.8317 52.9766 45.115 52.9625C45.0716 53.4887 45.1028 54.0183 45.2075 54.5358C45.2103 54.5741 45.2208 54.6114 45.2383 54.6456C45.2558 54.6798 45.2799 54.7101 45.3094 54.7348C45.3973 54.7903 45.513 54.7348 45.6009 54.6885C46.0144 54.4311 46.354 54.0707 46.5865 53.6427L47.0492 54.707C47.0809 54.8164 47.1517 54.9103 47.2483 54.9708C47.3156 54.9934 47.3885 54.993 47.4556 54.9695C47.5226 54.9461 47.5799 54.9009 47.6184 54.8412C47.6938 54.7192 47.7397 54.5814 47.7526 54.4386L47.9192 53.4298C47.9211 53.3779 47.9389 53.3279 47.9701 53.2864C48.0212 53.2462 48.0861 53.2279 48.1506 53.2355C48.5732 53.2355 48.9943 53.2355 49.4139 53.2355C49.4879 53.0134 49.2612 52.8051 49.0483 52.708C48.8354 52.6108 48.5856 52.5414 48.4652 52.3331C48.2478 51.9074 48.817 51.3105 48.5763 50.9449C48.3357 50.5793 47.8128 50.9125 47.4426 51.0976Z" fill="#97BC62"/>
<path opacity="0.2" d="M40.3948 31.1811C40.3518 31.2081 40.3021 31.2225 40.2514 31.2228C40.1634 31.2228 40.0987 31.1349 40.0616 31.0516C39.858 30.5888 39.9737 30.0335 39.6637 29.6633C39.3441 30.0449 39.0864 30.4743 38.9002 30.9359L37.7063 30.5657C37.6465 30.8002 37.6358 31.0446 37.6748 31.2835C37.7138 31.5223 37.8017 31.7506 37.933 31.9539C37.7233 32.0469 37.532 32.177 37.3685 32.338C37.2879 32.4198 37.2315 32.5223 37.2053 32.6342C37.1792 32.746 37.1844 32.8629 37.2204 32.9719C37.4975 33.0387 37.7825 33.0668 38.0672 33.0552C38.0225 33.5812 38.0521 34.1109 38.1551 34.6286C38.1632 34.7052 38.1994 34.7762 38.2569 34.8275C38.3449 34.8831 38.4605 34.8275 38.5485 34.7766C38.9639 34.5236 39.3042 34.1641 39.5341 33.7355L39.9969 34.7951C40.0301 34.905 40.1004 34.9998 40.1958 35.0635C40.2638 35.0865 40.3376 35.0863 40.4054 35.0628C40.4732 35.0394 40.5314 34.994 40.5707 34.934C40.6443 34.8116 40.6887 34.6738 40.7002 34.5314L40.8668 33.5226C40.8698 33.4701 40.8892 33.4199 40.9223 33.3792C40.972 33.3397 41.0352 33.3214 41.0982 33.3283C41.5193 33.3283 41.945 33.3283 42.3661 33.3283C42.4355 33.1015 42.2134 32.8933 41.9959 32.8007C41.7784 32.7082 41.5332 32.6341 41.4175 32.4259C41.1954 31.9956 41.7645 31.4032 41.5239 31.0377C41.2833 30.6721 40.765 31.0007 40.3948 31.1811Z" fill="#5271FF"/>
<path opacity="0.3" d="M54.2819 57.1781C54.2371 57.201 54.1885 57.2151 54.1384 57.2197C54.0505 57.2197 53.9857 57.1272 53.9487 57.0439C53.7451 56.6043 53.8608 56.0305 53.5507 55.6556C53.2311 56.0389 52.9734 56.4698 52.7872 56.9328L51.5933 56.5626C51.5341 56.7972 51.5237 57.0415 51.5627 57.2803C51.6017 57.519 51.6893 57.7473 51.8201 57.9508C51.6096 58.0405 51.418 58.1693 51.2555 58.3303C51.1754 58.4124 51.1193 58.5149 51.0932 58.6266C51.0671 58.7384 51.072 58.8551 51.1075 58.9642C51.3841 59.0333 51.6695 59.0614 51.9543 59.0475C51.9094 59.5735 51.939 60.1032 52.0422 60.6209C52.0502 60.6975 52.0865 60.7685 52.144 60.8198C52.2319 60.8754 52.3476 60.8199 52.4402 60.7736C52.8524 60.5161 53.1905 60.1556 53.4212 59.7278L53.8839 60.7921C53.9155 60.9015 53.9864 60.9954 54.0829 61.0559C54.1509 61.0788 54.2246 61.0786 54.2925 61.0551C54.3603 61.0317 54.4184 60.9864 54.4577 60.9263C54.5314 60.8039 54.5758 60.6661 54.5873 60.5237L54.7539 59.5149C54.7574 59.4626 54.7768 59.4126 54.8094 59.3715C54.859 59.332 54.9222 59.3137 54.9852 59.3206C55.4063 59.3206 55.8321 59.3206 56.2532 59.3206C56.3226 59.0984 56.1005 58.8902 55.883 58.793C55.6655 58.6959 55.4202 58.6264 55.3045 58.4182C55.0824 57.9925 55.6516 57.3955 55.411 57.03C55.1703 56.6644 54.6521 56.9837 54.2819 57.1781Z" fill="#5271FF"/>
</svg>
