<svg width="128" height="128" viewBox="0 0 128 128" fill="none" xmlns="http://www.w3.org/2000/svg">
<g clip-path="url(#clip0_654_5462)">
<path d="M85.1379 127.958H6.98665C5.13432 127.956 3.35845 127.219 2.04865 125.91C0.738849 124.6 0.00209088 122.825 0 120.973V7.66573C0.00209088 5.81388 0.738849 4.03848 2.04865 2.72903C3.35845 1.41957 5.13432 0.682999 6.98665 0.680908H85.1379C86.9902 0.682996 88.7661 1.41957 90.0759 2.72902C91.3857 4.03848 92.1225 5.81388 92.1246 7.66573V120.973C92.1225 122.825 91.3857 124.6 90.0759 125.91C88.7661 127.219 86.9902 127.956 85.1379 127.958Z" fill="#E2E8F0"/>
<path d="M85.2754 123.501H6.84902C6.27802 123.501 5.7306 123.274 5.32684 122.87C4.92309 122.466 4.69597 121.919 4.69531 121.348V7.29059C4.69597 6.71975 4.92309 6.17246 5.32684 5.76881C5.7306 5.36516 6.27802 5.1381 6.84902 5.13745H85.2754C85.8464 5.1381 86.3938 5.36516 86.7976 5.76881C87.2013 6.17246 87.4285 6.71975 87.4291 7.29059V121.348C87.4285 121.919 87.2013 122.466 86.7976 122.87C86.3938 123.274 85.8464 123.501 85.2754 123.501Z" fill="white"/>
<path d="M45.7652 3.41422C46.0935 3.41422 46.3596 3.14819 46.3596 2.82003C46.3596 2.49186 46.0935 2.22583 45.7652 2.22583C45.437 2.22583 45.1709 2.49186 45.1709 2.82003C45.1709 3.14819 45.437 3.41422 45.7652 3.41422Z" fill="white"/>
<path d="M66.982 53.3731L64.3857 45.5992L64.3418 45.4641L75.2754 38.5596L75.8566 39.3426L78.9017 43.442L77.7886 46.7575L74.9117 55.3238L74.7856 55.7003L80.1134 59.6604C80.3245 60.0498 80.4999 60.4047 80.6426 60.7309C82.2331 64.3542 79.8788 64.1898 79.8788 64.1898L69.0432 59.5465L66.982 53.3731Z" fill="#FEDFCB"/>
<path d="M72.7181 54.8201L72.2404 53.389L69.8961 46.3639L69.4077 44.8996L68.9976 43.674L74.3437 40.297L79.9312 36.7695L83.5574 41.6519L82.4584 44.9257L81.9242 46.5163L81.0983 48.9767L79.4413 53.9102L84.7692 57.8703C85.1723 58.5771 85.4905 59.3289 85.7173 60.1103C85.8099 60.4364 85.8538 60.7743 85.8477 61.1133C85.8563 61.2868 85.8281 61.4601 85.7648 61.6219C85.7016 61.7837 85.6047 61.9302 85.4806 62.0518C85.3565 62.1734 85.208 62.2673 85.0449 62.3273C84.8818 62.3872 84.7079 62.412 84.5345 62.3998L73.6989 57.7564L72.7181 54.8201Z" fill="#FEDFCB"/>
<path opacity="0.15" d="M72.2099 55.1372L71.5811 48.5103L74.7145 46.8118L74.9195 47.19L72.036 48.7529L72.6191 54.8963L79.0254 59.2824L78.7824 59.6371L72.2099 55.1372Z" fill="#171923"/>
<path opacity="0.15" d="M79.0447 54.9151L78.7891 55.261L85.2541 60.0365L85.5097 59.6906L79.0447 54.9151Z" fill="#171923"/>
<path d="M78.6595 61.4108L46.1359 38.5532L13.2803 61.1978L45.6459 74.8614L78.6595 61.4108Z" fill="white"/>
<path d="M55.3737 42.0094L66.3255 31.3042L85.9126 29.9812L110.26 53.225L128 62.9306L123.002 77.6233L101.591 67.4622C97.2315 67.142 94.4264 65.6958 92.6525 64.1749C92.0425 63.6526 91.4926 63.0639 91.0132 62.4197C90.4882 61.7366 90.0786 60.9722 89.8007 60.1568L81.0981 48.9768L79.3039 46.6696L78.1419 45.1766L74.3435 40.2971L74.0701 39.9463L67.617 39.7755L64.2586 44.1834L61.8996 47.2766C61.8446 48.3661 61.4511 49.4112 60.7738 50.2665C58.6584 52.8389 54.3691 52.3366 54.3691 52.3366L55.3737 42.0094Z" fill="#FEDFCB"/>
<path d="M13.4055 61.177H13.4289L26.8613 66.9112L45.2396 74.7568C45.3114 74.787 45.3885 74.8028 45.4664 74.8032C45.5443 74.8036 45.6215 74.7886 45.6937 74.7592L64.6547 66.8948L78.4171 61.1864L78.4381 61.177H78.4615C78.6787 61.1772 78.8869 61.2636 79.0404 61.4171C79.194 61.5706 79.2804 61.7787 79.2806 61.9958V97.5567C79.2804 97.7738 79.194 97.982 79.0404 98.1355C78.8869 98.289 78.6787 98.3753 78.4615 98.3756H13.4055C13.1883 98.3753 12.9801 98.289 12.8266 98.1355C12.673 97.982 12.5867 97.7738 12.5864 97.5567V61.9958C12.5867 61.7787 12.673 61.5706 12.8266 61.4171C12.9801 61.2636 13.1883 61.1772 13.4055 61.177Z" fill="white"/>
<path d="M13.347 61.4109C13.3709 61.4109 13.3942 61.4036 13.4138 61.3899L45.7733 38.8598C45.8717 38.7915 45.9888 38.7551 46.1086 38.7553C46.2284 38.7555 46.3453 38.7924 46.4435 38.8609L78.5698 61.3897C78.5953 61.4074 78.6267 61.4143 78.6572 61.4089C78.6877 61.4035 78.7148 61.3862 78.7326 61.3609C78.7504 61.3355 78.7574 61.3041 78.7521 61.2736C78.7468 61.2431 78.7296 61.216 78.7042 61.1981L46.5779 38.6694C46.4403 38.5734 46.2767 38.5218 46.1089 38.5215C45.9412 38.5212 45.7774 38.5723 45.6395 38.6678L13.2801 61.1979C13.2597 61.2121 13.2443 61.2325 13.2363 61.2561C13.2282 61.2796 13.2279 61.3052 13.2354 61.3289C13.2428 61.3527 13.2577 61.3734 13.2778 61.3882C13.2979 61.4029 13.3221 61.4109 13.347 61.4109Z" fill="#3F3D56"/>
<path d="M76.7341 62.2095L46.0768 39.4946L15.187 63.8258L44.4973 81.1968L60.4102 77.5706L76.7341 62.2095Z" fill="#E2E8F0"/>
<path d="M59.0672 91.926H74.2127C74.4002 91.9261 74.5801 91.8517 74.7128 91.7193C74.8455 91.5868 74.9202 91.4072 74.9205 91.2197C74.9208 91.0322 74.8466 90.8523 74.7143 90.7194C74.582 90.5866 74.4023 90.5117 74.2148 90.5112H59.0672C58.8797 90.5112 58.6998 90.5855 58.5671 90.718C58.4344 90.8504 58.3597 91.0301 58.3594 91.2176C58.3591 91.4051 58.4333 91.585 58.5656 91.7178C58.6979 91.8507 58.8776 91.9255 59.0651 91.926H59.0672Z" fill="#5271FF"/>
<path d="M68.7786 88.8848H74.2125C74.4 88.8848 74.5799 88.8105 74.7126 88.678C74.8453 88.5456 74.92 88.3659 74.9203 88.1784C74.9206 87.9909 74.8464 87.811 74.7141 87.6782C74.5818 87.5453 74.4021 87.4705 74.2146 87.47H68.7786C68.5911 87.4699 68.4112 87.5443 68.2785 87.6767C68.1458 87.8092 68.0711 87.9888 68.0708 88.1763C68.0705 88.3638 68.1447 88.5437 68.277 88.6766C68.4093 88.8094 68.589 88.8843 68.7765 88.8848H68.7786Z" fill="#5271FF"/>
<path d="M45.6459 74.8613C45.761 74.8615 45.875 74.8391 45.9816 74.7956L64.8889 66.9524V42.4021C64.8886 42.185 64.8022 41.9769 64.6487 41.8234C64.4952 41.6699 64.287 41.5835 64.0698 41.5833H27.7976C27.5804 41.5835 27.3722 41.6699 27.2187 41.8234C27.0651 41.9769 26.9788 42.185 26.9785 42.4021V66.9696L27.0141 66.9848L45.3 74.7918C45.4095 74.8378 45.5271 74.8614 45.6459 74.8613Z" fill="white"/>
<path d="M45.2769 74.8456L26.9199 67.0083V42.4022C26.9202 42.1696 27.0127 41.9466 27.1772 41.7822C27.3418 41.6177 27.5648 41.5252 27.7975 41.5249H64.0697C64.3024 41.5252 64.5255 41.6177 64.69 41.7822C64.8545 41.9466 64.947 42.1696 64.9473 42.4022V66.9916L46.0038 74.8499C45.7705 74.9447 45.5091 74.9432 45.2769 74.8456ZM64.7133 42.4022C64.7131 42.2317 64.6452 42.0681 64.5246 41.9475C64.4039 41.8269 64.2404 41.7591 64.0697 41.7589H27.7975C27.6269 41.7591 27.4633 41.8269 27.3426 41.9475C27.222 42.0681 27.1541 42.2317 27.1539 42.4022V66.8539L45.3683 74.6303C45.5428 74.7035 45.7392 74.7047 45.9145 74.6336L64.7133 66.8354L64.7133 42.4022Z" fill="#3F3D56"/>
<path d="M12.7622 61.9958V97.5567C12.7624 97.7738 12.8488 97.982 13.0024 98.1355C13.1559 98.289 13.3641 98.3753 13.5813 98.3756H78.6373C78.8545 98.3753 79.0627 98.289 79.2162 98.1355C79.3698 97.982 79.4561 97.7738 79.4564 97.5567V61.9958C79.4561 61.7787 79.3698 61.5706 79.2162 61.4171C79.0627 61.2636 78.8545 61.1772 78.6373 61.177H78.6139L78.5929 61.1864L64.8305 66.8948L45.8694 74.7592C45.7973 74.7886 45.7201 74.8036 45.6422 74.8032C45.5643 74.8028 45.4872 74.787 45.4154 74.7568L27.0371 66.9112L13.6047 61.177H13.5813C13.3641 61.1772 13.1559 61.2636 13.0024 61.4171C12.8488 61.5706 12.7624 61.7787 12.7622 61.9958ZM12.9962 61.9958C12.9966 61.8448 13.0551 61.6998 13.1597 61.5908C13.2643 61.4819 13.4069 61.4175 13.5578 61.411L27.0371 67.165L45.323 74.9721C45.5263 75.0574 45.7552 75.0587 45.9595 74.9756L64.8305 67.1475L78.6596 61.411C78.8107 61.417 78.9537 61.4813 79.0586 61.5903C79.1635 61.6993 79.2221 61.8446 79.2224 61.9958V97.5567C79.2223 97.7118 79.1606 97.8606 79.0509 97.9702C78.9412 98.0799 78.7925 98.1416 78.6373 98.1416H13.5813C13.4261 98.1416 13.2773 98.0799 13.1676 97.9702C13.0579 97.8606 12.9963 97.7118 12.9962 97.5567V61.9958Z" fill="#3F3D56"/>
<path d="M30.9727 50.7603H43.8435C44.0917 50.7603 44.3298 50.6617 44.5054 50.4862C44.6809 50.3107 44.7795 50.0727 44.7795 49.8245C44.7795 49.5763 44.6809 49.3383 44.5054 49.1628C44.3298 48.9873 44.0917 48.8887 43.8435 48.8887H30.9727C30.7244 48.8887 30.4863 48.9873 30.3108 49.1628C30.1352 49.3383 30.0366 49.5763 30.0366 49.8245C30.0366 50.0727 30.1352 50.3107 30.3108 50.4862C30.4863 50.6617 30.7244 50.7603 30.9727 50.7603Z" fill="#5271FF"/>
<path d="M30.9805 46.783H37.1819C37.4301 46.783 37.6682 46.6844 37.8438 46.5089C38.0193 46.3334 38.1179 46.0954 38.1179 45.8472C38.1179 45.599 38.0193 45.361 37.8438 45.1855C37.6682 45.01 37.4301 44.9114 37.1819 44.9114H30.9805C30.7322 44.9114 30.4941 45.01 30.3186 45.1855C30.1431 45.361 30.0444 45.599 30.0444 45.8472C30.0444 46.0954 30.1431 46.3334 30.3186 46.5089C30.4941 46.6844 30.7322 46.783 30.9805 46.783Z" fill="#5271FF"/>
<path d="M36.3072 60.1185H55.9644C56.2126 60.1185 56.4507 60.0199 56.6263 59.8444C56.8018 59.6689 56.9004 59.4308 56.9004 59.1826C56.9004 58.9344 56.8018 58.6964 56.6263 58.5209C56.4507 58.3454 56.2126 58.2468 55.9644 58.2468H36.3072C36.0589 58.2468 35.8208 58.3454 35.6453 58.5209C35.4697 58.6964 35.3711 58.9344 35.3711 59.1826C35.3711 59.4308 35.4697 59.6689 35.6453 59.8444C35.8208 60.0199 36.0589 60.1185 36.3072 60.1185Z" fill="#CCCCCC"/>
<path d="M36.3072 64.4466H55.9644C56.2126 64.4466 56.4507 64.348 56.6263 64.1725C56.8018 63.997 56.9004 63.759 56.9004 63.5108C56.9004 63.2626 56.8018 63.0245 56.6263 62.849C56.4507 62.6735 56.2126 62.575 55.9644 62.575H36.3072C36.0589 62.575 35.8208 62.6735 35.6453 62.849C35.4697 63.0245 35.3711 63.2626 35.3711 63.5108C35.3711 63.759 35.4697 63.997 35.6453 64.1725C35.8208 64.348 36.0589 64.4466 36.3072 64.4466Z" fill="#CCCCCC"/>
<path opacity="0.1" d="M81.9243 46.5164L85.8286 46.2908L101.428 65.5108L95.917 64.668L92.6529 64.175C92.0429 63.6527 91.493 63.0639 91.0136 62.4197L87.3866 61.3432L85.7175 60.1104C85.8222 60.511 81.9243 46.5164 81.9243 46.5164Z" fill="#171923"/>
<path d="M56.9678 45.9046C57.0797 45.1858 57.4716 44.5404 58.0579 44.1094C58.6441 43.6785 59.3772 43.4969 60.0969 43.6045L64.2588 44.1832L69.4078 44.8995L73.3869 45.4525L78.1421 45.1765L82.4584 44.9256L85.0084 44.7785L101.964 65.6698L87.3864 61.3431L85.7173 60.1102L78.4095 54.714C78.4095 54.714 76.0151 54.273 72.2404 53.389C71.6788 53.2556 65.3248 51.6615 62.3399 50.7946C61.7617 50.6262 61.243 50.45 60.774 50.2664C57.4462 48.9568 56.7804 47.2779 56.9678 45.9046Z" fill="#FEDFCB"/>
<path opacity="0.15" d="M59.3516 48.5147C59.3665 48.513 60.8519 48.328 61.486 47.2404C61.9132 46.5077 61.8703 45.5211 61.3584 44.308L61.7547 44.1409C62.3227 45.4869 62.3567 46.6036 61.8559 47.4598C61.1111 48.7334 59.47 48.934 59.4005 48.942L59.3516 48.5147Z" fill="#171923"/>
<path opacity="0.15" d="M74.3723 45.6106L74.3714 45.1807L82.0194 45.1684L73.9565 40.1287L74.1845 39.7639L83.5151 45.5959L74.3723 45.6106Z" fill="#171923"/>
</g>
<defs>
<clipPath id="clip0_654_5462">
<rect width="128" height="127.277" fill="white" transform="translate(0 0.680908)"/>
</clipPath>
</defs>
</svg>
