<svg width="154" height="139" viewBox="0 0 154 139" fill="none" xmlns="http://www.w3.org/2000/svg">
<g clip-path="url(#clip0_1097_4927)">
<path d="M152.649 53.4549C152.594 53.4549 152.54 53.4381 152.495 53.4066L77.7754 1.46091C77.548 1.30357 77.2778 1.21948 77.0011 1.21995C76.7244 1.22042 76.4545 1.30543 76.2277 1.46354L2.0465 53.406C1.98782 53.4471 1.9152 53.4633 1.84461 53.4509C1.77402 53.4385 1.71124 53.3987 1.67009 53.3401C1.62894 53.2815 1.61277 53.209 1.62516 53.1386C1.63755 53.0681 1.67748 53.0054 1.73615 52.9643L75.9174 1.02185C76.235 0.800522 76.6129 0.681546 77.0003 0.680911C77.3876 0.680275 77.7659 0.79801 78.0842 1.0183L152.804 52.9638C152.851 52.9966 152.886 53.0437 152.905 53.098C152.923 53.1524 152.924 53.2112 152.907 53.266C152.89 53.3208 152.855 53.3687 152.809 53.4026C152.763 53.4366 152.707 53.4549 152.649 53.4549Z" fill="black" fill-opacity="0.64"/>
<path d="M6.28516 55.2962L77.0744 2.92456L148.401 59.0227L80.7217 99.0735L43.9779 90.7127L6.28516 55.2962Z" fill="#CBD5E0"/>
<path d="M47.0797 123.811H12.1081C11.8934 123.811 11.6807 123.769 11.4822 123.688C11.2838 123.606 11.1034 123.486 10.9515 123.334C10.7995 123.183 10.679 123.003 10.5967 122.805C10.5145 122.607 10.4722 122.395 10.4722 122.18C10.4722 121.966 10.5145 121.754 10.5967 121.556C10.679 121.358 10.7995 121.178 10.9515 121.026C11.1034 120.875 11.2838 120.755 11.4822 120.673C11.6807 120.591 11.8934 120.549 12.1081 120.549H47.0797C47.2945 120.549 47.5071 120.591 47.7056 120.673C47.9041 120.755 48.0844 120.875 48.2364 121.026C48.3883 121.178 48.5089 121.358 48.5911 121.556C48.6733 121.754 48.7157 121.966 48.7157 122.18C48.7157 122.395 48.6733 122.607 48.5911 122.805C48.5089 123.003 48.3883 123.183 48.2364 123.334C48.0844 123.486 47.9041 123.606 47.7056 123.688C47.5071 123.769 47.2945 123.811 47.0797 123.811Z" fill="#5271FF"/>
<path d="M24.6551 116.799H12.1081C11.8934 116.799 11.6807 116.757 11.4822 116.675C11.2838 116.594 11.1034 116.473 10.9515 116.322C10.7995 116.171 10.679 115.991 10.5967 115.793C10.5145 115.595 10.4722 115.382 10.4722 115.168C10.4722 114.954 10.5145 114.741 10.5967 114.543C10.679 114.345 10.7995 114.165 10.9515 114.014C11.1034 113.862 11.2838 113.742 11.4822 113.661C11.6807 113.579 11.8934 113.537 12.1081 113.537H24.6551C24.8699 113.537 25.0826 113.579 25.281 113.661C25.4795 113.742 25.6599 113.862 25.8118 114.014C25.9638 114.165 26.0843 114.345 26.1665 114.543C26.2488 114.741 26.2911 114.954 26.2911 115.168C26.2911 115.382 26.2488 115.595 26.1665 115.793C26.0843 115.991 25.9638 116.171 25.8118 116.322C25.6599 116.473 25.4795 116.594 25.281 116.675C25.0826 116.757 24.8699 116.799 24.6551 116.799Z" fill="#5271FF"/>
<path d="M78.0698 84.4665C77.8039 84.4668 77.5406 84.4153 77.2946 84.3149L33.6367 66.2317V9.62815C33.6373 9.12762 33.8367 8.64776 34.1913 8.29384C34.5458 7.93991 35.0265 7.74082 35.5279 7.74023H119.282C119.784 7.74082 120.264 7.93991 120.619 8.29384C120.974 8.64776 121.173 9.12762 121.174 9.62815V66.2712L121.091 66.3062L78.8684 84.3061C78.6156 84.4122 78.344 84.4667 78.0698 84.4665Z" fill="white"/>
<path d="M78.0701 84.6013C77.7866 84.6016 77.5059 84.5468 77.2435 84.4399L33.502 66.3219V9.62824C33.5026 9.09195 33.7162 8.57781 34.0961 8.1986C34.476 7.81938 34.991 7.60608 35.5283 7.60547H119.283C119.82 7.60608 120.335 7.81938 120.715 8.1986C121.095 8.57781 121.308 9.09195 121.309 9.62824V66.3603L78.9218 84.4301C78.6522 84.5434 78.3626 84.6016 78.0701 84.6013ZM34.0423 65.9616L77.4495 83.9412C77.8544 84.1051 78.3078 84.1024 78.7107 83.9337L120.769 66.0042V9.62824C120.768 9.23497 120.611 8.85794 120.333 8.57986C120.054 8.30177 119.677 8.14534 119.283 8.14487H35.5283C35.1343 8.14534 34.7566 8.30177 34.4781 8.57986C34.1995 8.85794 34.0428 9.23497 34.0423 9.62824L34.0423 65.9616Z" fill="black" fill-opacity="0.64"/>
<path d="M152.109 52.9155H152.055L121.039 66.1364L78.6022 84.2253C78.4364 84.2949 78.2584 84.3312 78.0785 84.3322C77.8987 84.3331 77.7203 84.2986 77.5538 84.2307L33.7719 66.0986L1.99386 52.9371L1.94532 52.9155H1.89123C1.38981 52.9161 0.909094 53.1152 0.554541 53.4691C0.199987 53.823 0.000556359 54.3029 0 54.8034V136.793C0.000557073 137.294 0.199987 137.773 0.554541 138.127C0.909094 138.481 1.38981 138.68 1.89123 138.681H152.109C152.61 138.68 153.091 138.481 153.445 138.127C153.8 137.773 153.999 137.294 154 136.793V54.8034C153.999 54.3029 153.8 53.823 153.445 53.4691C153.091 53.1152 152.61 52.9161 152.109 52.9155ZM153.46 136.793C153.46 137.151 153.317 137.494 153.064 137.746C152.811 137.999 152.467 138.141 152.109 138.142H1.89123C1.533 138.141 1.18948 137.999 0.936173 137.746C0.682866 137.494 0.540494 137.151 0.540351 136.793V54.8034C0.540841 54.4547 0.676347 54.1197 0.918537 53.8684C1.16073 53.6171 1.49085 53.4689 1.83991 53.4549L33.7719 66.6811L77.3459 84.7296C77.8176 84.9212 78.3461 84.9183 78.8156 84.7215L121.039 66.7216L152.163 53.4549C152.511 53.47 152.841 53.6185 153.082 53.8697C153.324 54.1208 153.459 54.4553 153.46 54.8034V136.793Z" fill="black" fill-opacity="0.64"/>
<path d="M77.6334 68.4159C76.0217 68.4189 74.4527 67.8986 73.1631 66.9336L73.0832 66.8737L56.2483 54.0068C55.4686 53.4105 54.8143 52.6667 54.3226 51.8179C53.8309 50.9691 53.5114 50.032 53.3825 49.06C53.2537 48.088 53.3178 47.1002 53.5714 46.1529C53.8249 45.2056 54.2629 44.3175 54.8602 43.5392C55.4576 42.7609 56.2027 42.1077 57.053 41.6169C57.9032 41.126 58.842 40.8072 59.8157 40.6785C60.7895 40.5498 61.779 40.6139 62.7279 40.867C63.6768 41.1201 64.5665 41.5573 65.3462 42.1536L76.2506 50.5003L102.019 16.9529C102.617 16.1748 103.362 15.5218 104.213 15.0313C105.063 14.5407 106.002 14.2222 106.976 14.0939C107.95 13.9656 108.939 14.03 109.888 14.2834C110.837 14.5369 111.726 14.9744 112.506 15.5711L112.346 15.7882L112.51 15.5742C114.082 16.7805 115.111 18.5601 115.37 20.5225C115.63 22.485 115.099 24.4701 113.894 26.0423L83.5839 65.5021C82.8829 66.4114 81.9814 67.1473 80.9495 67.6526C79.9175 68.1579 78.7828 68.4191 77.6334 68.4159Z" fill="#5271FF"/>
</g>
<defs>
<clipPath id="clip0_1097_4927">
<rect width="154" height="138" fill="white" transform="translate(0 0.680908)"/>
</clipPath>
</defs>
</svg>
