<svg width="250" height="46" viewBox="0 0 250 46" fill="none" xmlns="http://www.w3.org/2000/svg"> <mask id="mask0_57_369" style="mask-type:luminance" maskUnits="userSpaceOnUse" x="0" y="0" width="48" height="13"> <path d="M0 0.824768H47.2178V12.6849H0V0.824768Z" fill="white"/> </mask> <g mask="url(#mask0_57_369)"> <mask id="mask1_57_369" style="mask-type:luminance" maskUnits="userSpaceOnUse" x="0" y="0" width="48" height="13"> <path d="M5.93007 0.824768H41.2567C42.8311 0.824768 44.3382 1.44626 45.4517 2.55977C46.5653 3.67327 47.1867 5.18039 47.1867 6.75483C47.1867 8.32928 46.5653 9.8364 45.4517 10.9499C44.3382 12.0582 42.8311 12.6849 41.2567 12.6849H5.93007C4.35562 12.6849 2.8485 12.0582 1.735 10.9499C0.621491 9.8364 0 8.32928 0 6.75483C0 5.18039 0.621491 3.67327 1.735 2.55977C2.8485 1.44626 4.35562 0.824768 5.93007 0.824768Z" fill="white"/> </mask> <g mask="url(#mask1_57_369)"> <path d="M0 0.824768H47.1712V12.6849H0V0.824768Z" fill="#5271FF"/> </g> </g> <mask id="mask2_57_369" style="mask-type:luminance" maskUnits="userSpaceOnUse" x="0" y="19" width="13" height="11"> <path d="M0 19.6849H12.0777V29.6287H0V19.6849Z" fill="white"/> </mask> <g mask="url(#mask2_57_369)"> <mask id="mask3_57_369" style="mask-type:luminance" maskUnits="userSpaceOnUse" x="0" y="19" width="13" height="11"> <path d="M4.96675 19.6849H7.06947C9.81439 19.6849 12.0414 21.9119 12.0414 24.6568C12.0414 27.4017 9.81439 29.6287 7.06947 29.6287H4.96675C2.22183 29.6287 0 27.4017 0 24.6568C0 21.9119 2.22183 19.6849 4.96675 19.6849Z" fill="white"/> </mask> <g mask="url(#mask3_57_369)"> <path d="M0 19.6849H12.0362V29.6287H0V19.6849Z" fill="#97BC62"/> </g> </g> <mask id="mask4_57_369" style="mask-type:luminance" maskUnits="userSpaceOnUse" x="13" y="19" width="34" height="11"> <path d="M13.3194 19.6849H46.7608V29.6287H13.3194V19.6849Z" fill="white"/> </mask> <g mask="url(#mask4_57_369)"> <mask id="mask5_57_369" style="mask-type:luminance" maskUnits="userSpaceOnUse" x="13" y="19" width="34" height="11"> <path d="M18.2913 19.6849H41.7734C44.5235 19.6849 46.7453 21.9119 46.7453 24.6568C46.7453 27.4017 44.5235 29.6287 41.7734 29.6287H18.2913C15.5464 29.6287 13.3194 27.4017 13.3194 24.6568C13.3194 21.9119 15.5464 19.6849 18.2913 19.6849Z" fill="white"/> </mask> <g mask="url(#mask5_57_369)"> <path d="M13.3194 19.6849H46.7608V29.6287H13.3194V19.6849Z" fill="#97BC62"/> </g> </g> <mask id="mask6_57_369" style="mask-type:luminance" maskUnits="userSpaceOnUse" x="0" y="36" width="24" height="10"> <path d="M0 36.6288H23.6167V45.5058H0V36.6288Z" fill="white"/> </mask> <g mask="url(#mask6_57_369)"> <mask id="mask7_57_369" style="mask-type:luminance" maskUnits="userSpaceOnUse" x="0" y="36" width="24" height="10"> <path d="M4.43849 36.6288H19.1523C20.3331 36.6288 21.4622 37.0949 22.2908 37.9287C23.1247 38.7626 23.5908 39.8916 23.5908 41.0673C23.5908 42.2429 23.1247 43.372 22.2908 44.2058C21.4622 45.0396 20.3331 45.5058 19.1523 45.5058H4.43849C3.25765 45.5058 2.12861 45.0396 1.29995 44.2058C0.466119 43.372 0 42.2429 0 41.0673C0 39.8916 0.466119 38.7626 1.29995 37.9287C2.12861 37.0949 3.25765 36.6288 4.43849 36.6288Z" fill="white"/> </mask> <g mask="url(#mask7_57_369)"> <path d="M0 36.6288H23.5804V45.5058H0V36.6288Z" fill="#737373"/> </g> </g> <mask id="mask8_57_369" style="mask-type:luminance" maskUnits="userSpaceOnUse" x="24" y="36" width="24" height="10"> <path d="M24.8584 36.6288H47.4341V45.5058H24.8584V36.6288Z" fill="white"/> </mask> <g mask="url(#mask8_57_369)"> <mask id="mask9_57_369" style="mask-type:luminance" maskUnits="userSpaceOnUse" x="24" y="36" width="24" height="10"> <path d="M29.2969 36.6288H42.9852C44.1661 36.6288 45.2951 37.0949 46.1238 37.9287C46.9576 38.7626 47.4237 39.8916 47.4237 41.0673C47.4237 42.2429 46.9576 43.372 46.1238 44.2058C45.2951 45.0396 44.1661 45.5058 42.9852 45.5058H29.2969C28.1212 45.5058 26.9922 45.0396 26.1584 44.2058C25.3245 43.372 24.8584 42.2429 24.8584 41.0673C24.8584 39.8916 25.3245 38.7626 26.1584 37.9287C26.9922 37.0949 28.1212 36.6288 29.2969 36.6288Z" fill="white"/> </mask> <g mask="url(#mask9_57_369)"> <path d="M24.8584 36.6288H47.4341V45.5058H24.8584V36.6288Z" fill="#737373"/> </g> </g> <path d="M69.9106 19.2395C69.8537 18.9235 69.7449 18.6698 69.5792 18.473C69.4238 18.2658 69.2477 18.1001 69.0406 17.9758C68.5848 17.7583 68.0513 17.6443 67.4454 17.6443C66.7669 17.6443 66.2697 17.7427 65.9538 17.9343C65.6482 18.1156 65.498 18.3694 65.498 18.7008C65.498 19.0634 65.6482 19.3534 65.9538 19.5709C66.2697 19.7936 66.6789 19.9956 67.1761 20.1717C67.6733 20.3374 68.2378 20.498 68.8748 20.6482C69.5222 20.788 70.18 20.9538 70.8429 21.1454C71.5162 21.3266 72.1739 21.5545 72.8109 21.829C73.4583 22.0932 74.0332 22.4402 74.5304 22.8648C75.0379 23.2792 75.4471 23.7867 75.7527 24.3771C76.0686 24.9727 76.2291 25.6978 76.2291 26.5524C76.2291 27.6296 76.0064 28.5774 75.5662 29.3905C75.1363 30.1933 74.5356 30.8562 73.7639 31.3793C73.0026 31.9075 72.0859 32.3012 71.0086 32.5601C69.9417 32.8346 68.7764 32.9744 67.5075 32.9744C66.2749 32.9744 65.1562 32.8087 64.1515 32.4772C63.1571 32.1458 62.2974 31.7004 61.5827 31.1307C60.8628 30.5506 60.3034 29.8825 59.9046 29.1212C59.5007 28.365 59.2831 27.5675 59.2417 26.7388H65.0837C65.2184 27.4017 65.5602 27.8937 66.0988 28.2097C66.3474 28.365 66.6219 28.479 66.9275 28.5618C67.2279 28.6344 67.5334 28.6654 67.839 28.6654C68.5951 28.6654 69.2063 28.5515 69.662 28.3132C70.1282 28.0802 70.3664 27.7435 70.3664 27.2981C70.3664 26.9408 70.211 26.6559 69.9106 26.4488C69.6051 26.2312 69.1959 26.0344 68.6884 25.8687C68.1912 25.703 67.6163 25.5528 66.9689 25.413C66.3319 25.2783 65.6741 25.1126 65.0009 24.9158C64.3379 24.7241 63.6802 24.4963 63.0328 24.2321C62.3958 23.9576 61.8312 23.6054 61.3341 23.1756C60.8369 22.7354 60.4277 22.2019 60.1118 21.5804C59.8062 20.9589 59.656 20.208 59.656 19.3223C59.656 18.328 59.8528 17.4579 60.2568 16.7121C60.6711 15.9663 61.2357 15.3448 61.9555 14.8476C62.6703 14.3504 63.5196 13.9775 64.5037 13.7289C65.498 13.4803 66.5753 13.356 67.7354 13.356C69.0302 13.356 70.1489 13.5166 71.0915 13.8325C72.0444 14.1381 72.842 14.5576 73.4946 15.0962C74.142 15.6245 74.6443 16.246 75.0069 16.9607C75.3642 17.665 75.5973 18.4264 75.7112 19.2395H69.9106Z" fill="#5271FF"/> <path d="M78.2986 32.4876V13.8428H93.4838V18.214H84.41V20.8657H92.075V25.2161H84.41V28.1371H93.8359V32.4876H78.2986Z" fill="#5271FF"/> <path d="M102.017 21.9015H104.42C105.373 21.9015 106.088 21.772 106.574 21.5079C107.072 21.2489 107.32 20.7932 107.32 20.1406C107.32 19.8092 107.258 19.5295 107.134 19.2912C107.009 19.0426 106.833 18.8458 106.616 18.6905C106.409 18.5247 106.15 18.4108 105.849 18.3383C105.544 18.2554 105.217 18.214 104.876 18.214H102.017V21.9015ZM102.017 26.0034V32.4876H95.9055V13.8428H104.71C106.253 13.8428 107.553 13.9568 108.605 14.1743C109.666 14.397 110.516 14.7285 111.153 15.1687C111.8 15.5985 112.261 16.1424 112.541 16.8053C112.831 17.4682 112.976 18.2554 112.976 19.1669C112.976 19.7056 112.914 20.2183 112.789 20.7C112.665 21.1868 112.468 21.627 112.209 22.0258C111.961 22.4298 111.634 22.7716 111.236 23.0616C110.832 23.3517 110.365 23.5744 109.827 23.7245C110.158 23.8385 110.459 23.9524 110.738 24.0767C111.028 24.1907 111.282 24.3253 111.505 24.4911C111.738 24.6464 111.945 24.8329 112.126 25.0504C112.318 25.2731 112.479 25.5476 112.603 25.8791C112.727 26.2002 112.82 26.5834 112.893 27.0392C112.96 27.4949 112.996 28.0336 112.996 28.655C112.996 29.2662 112.996 29.7737 112.996 30.1881C112.996 30.6024 113.007 30.9442 113.038 31.2032C113.079 31.4518 113.141 31.6382 113.224 31.7625C113.307 31.8764 113.442 31.9282 113.639 31.9282V32.4876H107.444C107.372 32.2804 107.305 31.8972 107.237 31.3275C107.165 30.7629 107.134 30.0638 107.134 29.2351C107.134 28.6292 107.097 28.1164 107.03 27.7021C106.958 27.2878 106.807 26.9563 106.574 26.7077C106.336 26.4488 106.005 26.2675 105.58 26.1691C105.15 26.0603 104.586 26.0034 103.881 26.0034H102.017Z" fill="#5271FF"/> <path d="M124.368 22.3366C124.71 22.3366 125.031 22.3055 125.321 22.233C125.621 22.1501 125.885 22.0258 126.108 21.8601C126.325 21.684 126.501 21.4613 126.626 21.1972C126.75 20.9227 126.812 20.5757 126.812 20.1613C126.812 19.7366 126.698 19.3896 126.481 19.1255C126.258 18.8666 125.984 18.6698 125.652 18.5455C125.331 18.4108 124.979 18.3176 124.596 18.2761C124.223 18.2347 123.871 18.214 123.539 18.214H121.82V22.3366H124.368ZM115.708 32.4876V13.8428H124.678C126.015 13.8428 127.185 13.9982 128.18 14.2986C129.174 14.5886 130.003 15.0133 130.665 15.5623C131.328 16.1009 131.815 16.7638 132.136 17.5511C132.468 18.3279 132.634 19.1877 132.634 20.1406C132.634 21.1505 132.478 22.0621 132.178 22.8752C131.872 23.6779 131.401 24.3616 130.769 24.9261C130.148 25.4958 129.345 25.9308 128.366 26.2312C127.397 26.5368 126.243 26.687 124.906 26.687H121.82V32.4876H115.708Z" fill="#5271FF"/> <path d="M134.703 13.5942H140.814V24.7604C140.814 25.2317 140.845 25.6719 140.918 26.0862C140.985 26.4902 141.115 26.8475 141.312 27.1635C141.519 27.469 141.809 27.7176 142.182 27.9093C142.555 28.0905 143.057 28.1786 143.694 28.1786C144.233 28.1786 144.688 28.0957 145.061 27.93C145.434 27.7642 145.724 27.5312 145.931 27.2256C146.149 26.9252 146.304 26.5627 146.387 26.1484C146.48 25.734 146.532 25.2731 146.532 24.7604V13.5942H152.643V24.1389C152.643 25.6305 152.462 26.9252 152.105 28.0128C151.758 29.0901 151.219 29.9809 150.489 30.6853C149.754 31.3896 148.821 31.9075 147.692 32.239C146.558 32.5704 145.227 32.7362 143.694 32.7362C142.254 32.7362 140.98 32.5808 139.861 32.2804C138.743 31.9904 137.8 31.5087 137.044 30.8303C136.283 30.157 135.703 29.2714 135.304 28.1786C134.9 27.0754 134.703 25.7237 134.703 24.1182V13.5942Z" fill="#97BC62"/> <path d="M163.372 22.3366C163.714 22.3366 164.035 22.3055 164.325 22.233C164.626 22.1501 164.89 22.0258 165.113 21.8601C165.33 21.684 165.506 21.4613 165.631 21.1972C165.755 20.9227 165.817 20.5757 165.817 20.1613C165.817 19.7366 165.703 19.3896 165.486 19.1255C165.263 18.8666 164.988 18.6698 164.657 18.5455C164.336 18.4108 163.984 18.3176 163.6 18.2761C163.227 18.2347 162.875 18.214 162.544 18.214H160.824V22.3366H163.372ZM154.713 32.4876V13.8428H163.683C165.019 13.8428 166.19 13.9982 167.184 14.2986C168.179 14.5886 169.007 15.0133 169.67 15.5623C170.333 16.1009 170.82 16.7638 171.141 17.5511C171.473 18.3279 171.638 19.1877 171.638 20.1406C171.638 21.1505 171.483 22.0621 171.183 22.8752C170.877 23.6779 170.406 24.3616 169.774 24.9261C169.152 25.4958 168.35 25.9308 167.371 26.2312C166.402 26.5368 165.247 26.687 163.911 26.687H160.824V32.4876H154.713Z" fill="#97BC62"/> <path d="M179.819 28.1371H181.104C181.818 28.1371 182.45 28.0439 182.989 27.8471C183.538 27.6555 184.004 27.3603 184.377 26.9563C184.75 26.542 185.029 26.0241 185.226 25.4026C185.418 24.7707 185.516 24.0094 185.516 23.1238C185.516 22.1605 185.433 21.3577 185.268 20.7207C185.102 20.0888 184.833 19.5813 184.46 19.2084C184.097 18.8355 183.636 18.5817 183.072 18.4419C182.502 18.2917 181.808 18.214 180.979 18.214H179.819V28.1371ZM173.708 32.4876V13.8428H181.891C183.382 13.8428 184.729 14.0241 185.93 14.3815C187.132 14.744 188.152 15.2878 188.997 16.0181C189.836 16.7535 190.478 17.6857 190.923 18.8148C191.379 19.9335 191.607 21.2593 191.607 22.7923C191.607 24.5325 191.369 26.0241 190.902 27.2671C190.447 28.4997 189.784 29.4992 188.914 30.2709C188.054 31.0478 187.013 31.6123 185.785 31.9697C184.568 32.3167 183.217 32.4876 181.725 32.4876H173.708Z" fill="#97BC62"/> <path d="M203.413 19.4777L201.507 26.1484H205.36L203.413 19.4777ZM193.676 32.4876L200.347 13.8428H206.541L213.233 32.4876H207.163L206.417 30.0223H200.347L199.643 32.4876H193.676Z" fill="#97BC62"/> <path d="M215.302 13.8428H232.393V18.7526H226.903V32.4876H220.813V18.7526H215.302V13.8428Z" fill="#97BC62"/> <path d="M234.463 32.4876V13.8428H249.648V18.214H240.574V20.8657H248.239V25.2161H240.574V28.1371H250V32.4876H234.463Z" fill="#97BC62"/> </svg>