<svg width="250" height="45" viewBox="0 0 250 45" fill="none" xmlns="http://www.w3.org/2000/svg">
<mask id="mask0_57_457" style="mask-type:luminance" maskUnits="userSpaceOnUse" x="0" y="0" width="48" height="12">
<path d="M0 0H47.2178V11.8601H0V0Z" fill="white"/>
</mask>
<g mask="url(#mask0_57_457)">
<mask id="mask1_57_457" style="mask-type:luminance" maskUnits="userSpaceOnUse" x="0" y="0" width="48" height="12">
<path d="M5.93007 0H41.2567C42.8311 0 44.3382 0.621491 45.4517 1.735C46.5653 2.8485 47.1867 4.35562 47.1867 5.93007C47.1867 7.50451 46.5653 9.01163 45.4517 10.1251C44.3382 11.2335 42.8311 11.8601 41.2567 11.8601H5.93007C4.35562 11.8601 2.8485 11.2335 1.735 10.1251C0.621491 9.01163 0 7.50451 0 5.93007C0 4.35562 0.621491 2.8485 1.735 1.735C2.8485 0.621491 4.35562 0 5.93007 0Z" fill="white"/>
</mask>
<g mask="url(#mask1_57_457)">
<path d="M0 0H47.1712V11.8601H0V0Z" fill="#5271FF"/>
</g>
</g>
<mask id="mask2_57_457" style="mask-type:luminance" maskUnits="userSpaceOnUse" x="0" y="18" width="13" height="11">
<path d="M0 18.8601H12.0777V28.804H0V18.8601Z" fill="white"/>
</mask>
<g mask="url(#mask2_57_457)">
<mask id="mask3_57_457" style="mask-type:luminance" maskUnits="userSpaceOnUse" x="0" y="18" width="13" height="11">
<path d="M4.96675 18.8601H7.06947C9.81439 18.8601 12.0414 21.0871 12.0414 23.832C12.0414 26.577 9.81439 28.804 7.06947 28.804H4.96675C2.22183 28.804 0 26.577 0 23.832C0 21.0871 2.22183 18.8601 4.96675 18.8601Z" fill="white"/>
</mask>
<g mask="url(#mask3_57_457)">
<path d="M0 18.8601H12.0362V28.804H0V18.8601Z" fill="#97BC62"/>
</g>
</g>
<mask id="mask4_57_457" style="mask-type:luminance" maskUnits="userSpaceOnUse" x="13" y="18" width="34" height="11">
<path d="M13.3194 18.8601H46.7608V28.804H13.3194V18.8601Z" fill="white"/>
</mask>
<g mask="url(#mask4_57_457)">
<mask id="mask5_57_457" style="mask-type:luminance" maskUnits="userSpaceOnUse" x="13" y="18" width="34" height="11">
<path d="M18.2913 18.8601H41.7733C44.5234 18.8601 46.7453 21.0871 46.7453 23.832C46.7453 26.577 44.5234 28.804 41.7733 28.804H18.2913C15.5464 28.804 13.3194 26.577 13.3194 23.832C13.3194 21.0871 15.5464 18.8601 18.2913 18.8601Z" fill="white"/>
</mask>
<g mask="url(#mask5_57_457)">
<path d="M13.3194 18.8601H46.7608V28.804H13.3194V18.8601Z" fill="#97BC62"/>
</g>
</g>
<mask id="mask6_57_457" style="mask-type:luminance" maskUnits="userSpaceOnUse" x="0" y="35" width="24" height="10">
<path d="M0 35.804H23.6167V44.6809H0V35.804Z" fill="white"/>
</mask>
<g mask="url(#mask6_57_457)">
<mask id="mask7_57_457" style="mask-type:luminance" maskUnits="userSpaceOnUse" x="0" y="35" width="24" height="10">
<path d="M4.43849 35.804H19.1523C20.3331 35.804 21.4622 36.2701 22.2908 37.1039C23.1247 37.9377 23.5908 39.0668 23.5908 40.2424C23.5908 41.4181 23.1247 42.5471 22.2908 43.381C21.4622 44.2148 20.3331 44.6809 19.1523 44.6809H4.43849C3.25765 44.6809 2.12861 44.2148 1.29995 43.381C0.466119 42.5471 0 41.4181 0 40.2424C0 39.0668 0.466119 37.9377 1.29995 37.1039C2.12861 36.2701 3.25765 35.804 4.43849 35.804Z" fill="white"/>
</mask>
<g mask="url(#mask7_57_457)">
<path d="M0 35.804H23.5804V44.6809H0V35.804Z" fill="#737373"/>
</g>
</g>
<mask id="mask8_57_457" style="mask-type:luminance" maskUnits="userSpaceOnUse" x="24" y="35" width="24" height="10">
<path d="M24.8584 35.804H47.4341V44.6809H24.8584V35.804Z" fill="white"/>
</mask>
<g mask="url(#mask8_57_457)">
<mask id="mask9_57_457" style="mask-type:luminance" maskUnits="userSpaceOnUse" x="24" y="35" width="24" height="10">
<path d="M29.2969 35.804H42.9852C44.1661 35.804 45.2951 36.2701 46.1238 37.1039C46.9576 37.9377 47.4237 39.0668 47.4237 40.2424C47.4237 41.4181 46.9576 42.5471 46.1238 43.381C45.2951 44.2148 44.1661 44.6809 42.9852 44.6809H29.2969C28.1212 44.6809 26.9922 44.2148 26.1584 43.381C25.3245 42.5471 24.8584 41.4181 24.8584 40.2424C24.8584 39.0668 25.3245 37.9377 26.1584 37.1039C26.9922 36.2701 28.1212 35.804 29.2969 35.804Z" fill="white"/>
</mask>
<g mask="url(#mask9_57_457)">
<path d="M24.8584 35.804H47.4341V44.6809H24.8584V35.804Z" fill="#737373"/>
</g>
</g>
<path d="M69.9107 18.4147C69.8537 18.0988 69.7449 17.845 69.5792 17.6482C69.4238 17.441 69.2477 17.2753 69.0406 17.151C68.5848 16.9335 68.0514 16.8195 67.4454 16.8195C66.767 16.8195 66.2698 16.9179 65.9538 17.1096C65.6483 17.2908 65.4981 17.5446 65.4981 17.8761C65.4981 18.2386 65.6483 18.5286 65.9538 18.7462C66.2698 18.9689 66.6789 19.1709 67.1761 19.3469C67.6733 19.5127 68.2378 19.6732 68.8748 19.8234C69.5222 19.9633 70.18 20.129 70.8429 20.3206C71.5162 20.5019 72.1739 20.7298 72.811 21.0043C73.4583 21.2684 74.0332 21.6154 74.5304 22.0401C75.038 22.4544 75.4471 22.9619 75.7527 23.5524C76.0686 24.148 76.2292 24.873 76.2292 25.7276C76.2292 26.8048 76.0065 27.7526 75.5662 28.5657C75.1364 29.3685 74.5356 30.0314 73.7639 30.5545C73.0026 31.0828 72.0859 31.4764 71.0086 31.7353C69.9417 32.0098 68.7764 32.1497 67.5076 32.1497C66.2749 32.1497 65.1563 31.9839 64.1515 31.6525C63.1571 31.321 62.2974 30.8756 61.5827 30.3059C60.8628 29.7258 60.3034 29.0577 59.9047 28.2964C59.5007 27.5403 59.2832 26.7427 59.2417 25.914H65.0838C65.2184 26.577 65.5602 27.069 66.0989 27.3849C66.3475 27.5403 66.6219 27.6542 66.9275 27.7371C67.2279 27.8096 67.5335 27.8407 67.839 27.8407C68.5952 27.8407 69.2063 27.7267 69.6621 27.4885C70.1282 27.2554 70.3664 26.9188 70.3664 26.4734C70.3664 26.116 70.2111 25.8312 69.9107 25.624C69.6051 25.4065 69.196 25.2097 68.6884 25.0439C68.1912 24.8782 67.6163 24.728 66.9689 24.5882C66.3319 24.4535 65.6742 24.2878 65.0009 24.091C64.338 23.8994 63.6802 23.6715 63.0328 23.4074C62.3958 23.1329 61.8313 22.7807 61.3341 22.3508C60.8369 21.9106 60.4277 21.3771 60.1118 20.7557C59.8063 20.1342 59.6561 19.3832 59.6561 18.4976C59.6561 17.5032 59.8529 16.6331 60.2568 15.8873C60.6712 15.1415 61.2357 14.52 61.9556 14.0228C62.6703 13.5256 63.5197 13.1527 64.5037 12.9041C65.4981 12.6555 66.5753 12.5312 67.7354 12.5312C69.0302 12.5312 70.1489 12.6918 71.0915 13.0077C72.0445 13.3133 72.842 13.7328 73.4946 14.2714C74.142 14.7997 74.6444 15.4212 75.0069 16.1359C75.3643 16.8403 75.5973 17.6016 75.7113 18.4147H69.9107Z" fill="#5271FF"/>
<path d="M78.2987 31.6628V13.0181H93.4838V17.3892H84.41V20.0409H92.0751V24.3914H84.41V27.3124H93.836V31.6628H78.2987Z" fill="#5271FF"/>
<path d="M102.017 21.0767H104.42C105.373 21.0767 106.088 20.9473 106.574 20.6831C107.072 20.4242 107.32 19.9684 107.32 19.3158C107.32 18.9844 107.258 18.7047 107.134 18.4665C107.009 18.2179 106.833 18.0211 106.616 17.8657C106.409 17.7 106.15 17.586 105.849 17.5135C105.544 17.4307 105.218 17.3892 104.876 17.3892H102.017V21.0767ZM102.017 25.1786V31.6628H95.9055V13.0181H104.71C106.253 13.0181 107.553 13.132 108.605 13.3495C109.666 13.5722 110.516 13.9037 111.153 14.3439C111.8 14.7738 112.261 15.3176 112.541 15.9805C112.831 16.6434 112.976 17.4307 112.976 18.3422C112.976 18.8808 112.914 19.3935 112.789 19.8752C112.665 20.362 112.468 20.8022 112.209 21.201C111.961 21.605 111.634 21.9468 111.236 22.2369C110.832 22.5269 110.366 22.7496 109.827 22.8998C110.158 23.0137 110.459 23.1277 110.738 23.252C111.028 23.3659 111.282 23.5006 111.505 23.6663C111.738 23.8217 111.945 24.0081 112.126 24.2256C112.318 24.4483 112.479 24.7228 112.603 25.0543C112.727 25.3754 112.82 25.7586 112.893 26.2144C112.96 26.6702 112.997 27.2088 112.997 27.8303C112.997 28.4414 112.997 28.949 112.997 29.3633C112.997 29.7776 113.007 30.1194 113.038 30.3784C113.079 30.627 113.142 30.8134 113.224 30.9377C113.307 31.0517 113.442 31.1035 113.639 31.1035V31.6628H107.445C107.372 31.4556 107.305 31.0724 107.237 30.5027C107.165 29.9382 107.134 29.239 107.134 28.4103C107.134 27.8044 107.098 27.2917 107.03 26.8773C106.958 26.463 106.807 26.1315 106.574 25.8829C106.336 25.624 106.005 25.4427 105.58 25.3443C105.15 25.2356 104.586 25.1786 103.881 25.1786H102.017Z" fill="#5271FF"/>
<path d="M124.368 21.5118C124.71 21.5118 125.031 21.4807 125.321 21.4082C125.621 21.3253 125.885 21.201 126.108 21.0353C126.325 20.8592 126.502 20.6365 126.626 20.3724C126.75 20.0979 126.812 19.7509 126.812 19.3366C126.812 18.9119 126.698 18.5649 126.481 18.3007C126.258 18.0418 125.984 17.845 125.652 17.7207C125.331 17.586 124.979 17.4928 124.596 17.4514C124.223 17.4099 123.871 17.3892 123.539 17.3892H121.82V21.5118H124.368ZM115.708 31.6628V13.0181H124.678C126.015 13.0181 127.185 13.1734 128.18 13.4738C129.174 13.7639 130.003 14.1885 130.666 14.7375C131.328 15.2762 131.815 15.9391 132.136 16.7263C132.468 17.5032 132.634 18.3629 132.634 19.3158C132.634 20.3258 132.478 21.2373 132.178 22.0504C131.872 22.8532 131.401 23.5368 130.769 24.1013C130.148 24.671 129.345 25.1061 128.366 25.4065C127.397 25.712 126.243 25.8622 124.906 25.8622H121.82V31.6628H115.708Z" fill="#5271FF"/>
<path d="M134.703 12.7695H140.814V23.9357C140.814 24.407 140.846 24.8472 140.918 25.2615C140.985 25.6655 141.115 26.0228 141.312 26.3388C141.519 26.6443 141.809 26.8929 142.182 27.0846C142.555 27.2658 143.057 27.3539 143.694 27.3539C144.233 27.3539 144.688 27.271 145.061 27.1053C145.434 26.9395 145.724 26.7065 145.931 26.4009C146.149 26.1005 146.304 25.738 146.387 25.3237C146.48 24.9093 146.532 24.4484 146.532 23.9357V12.7695H152.643V23.3142C152.643 24.8058 152.462 26.1005 152.105 27.1881C151.758 28.2654 151.219 29.1562 150.489 29.8605C149.754 30.5649 148.821 31.0828 147.692 31.4143C146.558 31.7457 145.227 31.9115 143.694 31.9115C142.254 31.9115 140.98 31.7561 139.861 31.4557C138.743 31.1657 137.8 30.684 137.044 30.0056C136.283 29.3323 135.703 28.4467 135.304 27.3539C134.9 26.2507 134.703 24.899 134.703 23.2935V12.7695Z" fill="#97BC62"/>
<path d="M163.372 21.5118C163.714 21.5118 164.035 21.4807 164.325 21.4082C164.626 21.3253 164.89 21.201 165.113 21.0353C165.33 20.8592 165.506 20.6365 165.631 20.3724C165.755 20.0979 165.817 19.7509 165.817 19.3366C165.817 18.9119 165.703 18.5649 165.486 18.3007C165.263 18.0418 164.988 17.845 164.657 17.7207C164.336 17.586 163.984 17.4928 163.6 17.4514C163.227 17.4099 162.875 17.3892 162.544 17.3892H160.824V21.5118H163.372ZM154.713 31.6628V13.0181H163.683C165.019 13.0181 166.19 13.1734 167.184 13.4738C168.179 13.7639 169.007 14.1885 169.67 14.7375C170.333 15.2762 170.82 15.9391 171.141 16.7263C171.473 17.5032 171.638 18.3629 171.638 19.3158C171.638 20.3258 171.483 21.2373 171.183 22.0504C170.877 22.8532 170.406 23.5368 169.774 24.1013C169.152 24.671 168.35 25.1061 167.371 25.4065C166.402 25.712 165.247 25.8622 163.911 25.8622H160.824V31.6628H154.713Z" fill="#97BC62"/>
<path d="M179.819 27.3124H181.104C181.818 27.3124 182.45 27.2191 182.989 27.0223C183.538 26.8307 184.004 26.5355 184.377 26.1315C184.75 25.7172 185.029 25.1993 185.226 24.5778C185.418 23.946 185.516 23.1846 185.516 22.299C185.516 21.3357 185.433 20.5329 185.268 19.8959C185.102 19.2641 184.833 18.7565 184.46 18.3836C184.097 18.0107 183.636 17.7569 183.072 17.6171C182.502 17.4669 181.808 17.3892 180.979 17.3892H179.819V27.3124ZM173.708 31.6628V13.0181H181.891C183.382 13.0181 184.729 13.1993 185.931 13.5567C187.132 13.9192 188.152 14.463 188.997 15.1933C189.836 15.9287 190.478 16.861 190.923 17.99C191.379 19.1087 191.607 20.4345 191.607 21.9675C191.607 23.7077 191.369 25.1993 190.902 26.4423C190.447 27.6749 189.784 28.6745 188.914 29.4462C188.054 30.223 187.013 30.7875 185.785 31.1449C184.568 31.4919 183.217 31.6628 181.725 31.6628H173.708Z" fill="#97BC62"/>
<path d="M203.413 18.6529L201.507 25.3236H205.36L203.413 18.6529ZM193.676 31.6628L200.347 13.0181H206.541L213.233 31.6628H207.163L206.417 29.1976H200.347L199.643 31.6628H193.676Z" fill="#97BC62"/>
<path d="M215.302 13.0181H232.393V17.9278H226.903V31.6628H220.813V17.9278H215.302V13.0181Z" fill="#97BC62"/>
<path d="M234.463 31.6628V13.0181H249.648V17.3892H240.574V20.0409H248.239V24.3914H240.574V27.3124H250V31.6628H234.463Z" fill="#97BC62"/>
</svg>
