<svg width="108" height="112" viewBox="0 0 108 112" fill="none" xmlns="http://www.w3.org/2000/svg">
<g clip-path="url(#clip0_1492_10450)">
<ellipse cx="54" cy="101.5" rx="43" ry="10.5" fill="#EDF2F7"/>
<path d="M30.085 25.9033H30.6126V11.3963C30.6126 10.2937 30.829 9.20186 31.2495 8.18317C31.67 7.16449 32.2862 6.23889 33.0631 5.45922C33.84 4.67955 34.7623 4.06109 35.7774 3.63913C36.7925 3.21718 37.8804 3 38.9791 3H69.6052C70.7039 3 71.7918 3.21717 72.8069 3.63912C73.822 4.06107 74.7443 4.67954 75.5212 5.4592C76.2981 6.23887 76.9144 7.16446 77.3348 8.18315C77.7553 9.20183 77.9717 10.2936 77.9717 11.3963V90.983C77.9717 92.0857 77.7553 93.1775 77.3349 94.1962C76.9144 95.2148 76.2981 96.1404 75.5212 96.9201C74.7443 97.6998 73.822 98.3182 72.8069 98.7402C71.7919 99.1622 70.7039 99.3793 69.6052 99.3793H38.9792C36.7602 99.3793 34.6322 98.4947 33.0632 96.9201C31.4941 95.3455 30.6127 93.2099 30.6126 90.9831V36.2297H30.085V25.9033Z" fill="#1A202C"/>
<path d="M38.6425 5.18445H42.6403C42.4564 5.63679 42.3862 6.12755 42.4359 6.61351C42.4856 7.09947 42.6536 7.56572 42.9251 7.97117C43.1966 8.37663 43.5633 8.70886 43.9929 8.93858C44.4225 9.1683 44.9018 9.28848 45.3886 9.28852H62.9339C63.4207 9.28848 63.9 9.16831 64.3296 8.93858C64.7592 8.70886 65.1259 8.37664 65.3974 7.97118C65.6689 7.56572 65.8369 7.09947 65.8866 6.61351C65.9362 6.12755 65.8661 5.63678 65.6822 5.18445H69.4161C71.0732 5.18445 72.6624 5.84506 73.8341 7.02096C75.0058 8.19685 75.6641 9.79172 75.6641 11.4547V90.9247C75.6641 91.7481 75.5025 92.5635 75.1885 93.3242C74.8745 94.085 74.4143 94.7762 73.8341 95.3584C73.2539 95.9407 72.5652 96.4025 71.8071 96.7177C71.0491 97.0328 70.2366 97.1949 69.4161 97.1949H38.6425C37.822 97.1949 37.0096 97.0328 36.2515 96.7177C35.4935 96.4025 34.8047 95.9407 34.2245 95.3584C33.6444 94.7762 33.1841 94.085 32.8701 93.3242C32.5561 92.5635 32.3945 91.7481 32.3945 90.9247V11.4547C32.3945 10.6313 32.5561 9.81592 32.8701 9.05518C33.1841 8.29444 33.6444 7.60321 34.2245 7.02096C34.8047 6.43872 35.4935 5.97685 36.2515 5.66174C37.0096 5.34664 37.822 5.18445 38.6425 5.18445Z" fill="white"/>
<path d="M60.6219 27.448H47.4355V30.6413H60.6219V27.448Z" fill="#5271FF"/>
<path d="M61.2495 41.1696H46.8076V44.3629H61.2495V41.1696Z" fill="#E5E5E5"/>
<path d="M70.1451 48.0292H37.9121V51.2225H70.1451V48.0292Z" fill="#E5E5E5"/>
<path d="M70.1451 54.8888H37.9121V58.0821H70.1451V54.8888Z" fill="#E5E5E5"/>
<path d="M54.0453 85.6405C59.1466 85.6405 63.282 81.4904 63.282 76.3709C63.282 71.2515 59.1466 67.1013 54.0453 67.1013C48.944 67.1013 44.8086 71.2515 44.8086 76.3709C44.8086 81.4904 48.944 85.6405 54.0453 85.6405Z" fill="#5271FF"/>
<path d="M53.1648 80.2839L50.4004 76.7165L52.008 75.4617L53.3169 77.1507L57.7391 72.4659L59.2179 73.8719L53.1648 80.2839Z" fill="white"/>
</g>
<defs>
<clipPath id="clip0_1492_10450">
<rect width="108" height="111" fill="white" transform="translate(0 0.680908)"/>
</clipPath>
</defs>
</svg>
